<svg width="18" height="18" viewBox="0 0 18 18" fill="none" xmlns="http://www.w3.org/2000/svg">
<path d="M15.555 7.734L12.33 3.10575C11.9844 2.60983 11.5239 2.20483 10.988 1.92523C10.4521 1.64564 9.85649 1.49975 9.252 1.5H6.375C5.61452 1.50258 4.87261 1.73521 4.24681 2.16731C3.62101 2.59941 3.14061 3.21077 2.86875 3.921L1.31475 8.019C0.909853 8.29393 0.578367 8.66374 0.349202 9.09619C0.120036 9.52864 0.000150286 10.0106 0 10.5L0 11.625C0.000615637 12.0571 0.15013 12.4757 0.423353 12.8104C0.696577 13.1451 1.07681 13.3754 1.5 13.4625V13.875C1.5 14.5712 1.77656 15.2389 2.26884 15.7312C2.76113 16.2234 3.42881 16.5 4.125 16.5C4.82119 16.5 5.48887 16.2234 5.98116 15.7312C6.47344 15.2389 6.75 14.5712 6.75 13.875V13.5H11.25V13.875C11.25 14.5712 11.5266 15.2389 12.0188 15.7312C12.5111 16.2234 13.1788 16.5 13.875 16.5C14.5712 16.5 15.2389 16.2234 15.7312 15.7312C16.2234 15.2389 16.5 14.5712 16.5 13.875V13.4625C16.9232 13.3754 17.3034 13.1451 17.5766 12.8104C17.8499 12.4757 17.9994 12.0571 18 11.625V11.25C17.9989 10.4847 17.7642 9.73799 17.3273 9.10968C16.8904 8.48137 16.2721 8.00142 15.555 7.734ZM11.1 3.963L13.563 7.5H8.25V3H9.252C9.61485 2.99961 9.97242 3.08698 10.2942 3.25466C10.616 3.42235 10.8924 3.66537 11.1 3.963ZM4.275 4.45275C4.43782 4.02715 4.72547 3.6607 5.10022 3.40145C5.47497 3.14221 5.91932 3.00227 6.375 3H6.75V7.5H3.1155L4.275 4.45275ZM5.25 13.875C5.25 14.1734 5.13147 14.4595 4.9205 14.6705C4.70952 14.8815 4.42337 15 4.125 15C3.82663 15 3.54048 14.8815 3.3295 14.6705C3.11853 14.4595 3 14.1734 3 13.875V13.5H5.25V13.875ZM13.875 15C13.5766 15 13.2905 14.8815 13.0795 14.6705C12.8685 14.4595 12.75 14.1734 12.75 13.875V13.5H15V13.875C15 14.1734 14.8815 14.4595 14.6705 14.6705C14.4595 14.8815 14.1734 15 13.875 15ZM16.5 11.625C16.5 11.7245 16.4605 11.8198 16.3902 11.8902C16.3198 11.9605 16.2245 12 16.125 12H1.875C1.77554 12 1.68016 11.9605 1.60984 11.8902C1.53951 11.8198 1.5 11.7245 1.5 11.625V10.5C1.5 10.1022 1.65804 9.72064 1.93934 9.43934C2.22064 9.15804 2.60218 9 3 9H14.25C14.8467 9 15.419 9.23705 15.841 9.65901C16.2629 10.081 16.5 10.6533 16.5 11.25V11.625Z" fill="#CCCCCC"/>
</svg>
