<svg width="318" height="171" viewBox="0 0 318 171" fill="none" xmlns="http://www.w3.org/2000/svg">
<g clip-path="url(#clip0_561_2133)">
<path d="M277.437 0.987305L257.94 40.3052L263.748 40.4896L247.246 71.741H255.912L242.406 99.4894H318L301.36 71.741L309.334 71.4184L293.386 40.1669L299.286 39.8442L277.437 0.987305Z" fill="#A8D29F"/>
<path d="M280.71 46.5739C280.802 46.5739 280.664 70.3121 280.388 99.5816C280.065 128.851 279.604 155.862 279.604 155.77C279.558 149.501 279.696 128.851 279.973 99.5816C280.249 70.3121 280.618 46.5739 280.71 46.5739Z" fill="#0A2800"/>
<path d="M289.975 56.6684C290.067 56.7145 288.131 59.3879 285.642 62.6145C283.153 65.841 281.079 68.3762 280.987 68.3301C280.894 68.284 282.83 65.6106 285.319 62.384C287.808 59.1575 289.883 56.6223 289.975 56.6684Z" fill="#0A2800"/>
<path d="M280.525 67.5004C280.479 67.5926 278.543 66.2098 276.239 64.4122C273.934 62.6145 272.136 61.0934 272.183 61.0012C272.229 60.9091 274.165 62.2919 276.469 64.0895C278.774 65.8872 280.618 67.4083 280.525 67.5004Z" fill="#0A2800"/>
<path d="M280.019 86.8137C279.973 86.8598 279.42 86.3988 278.59 85.7074C277.714 84.9699 276.562 84.0019 275.225 82.8957C273.888 81.8355 272.69 80.8676 271.814 80.1762C270.938 79.4848 270.385 79.0238 270.431 78.9777C270.477 78.9316 271.077 79.3004 271.999 79.9457C272.92 80.591 274.165 81.5129 275.502 82.573C276.838 83.6793 277.991 84.6934 278.82 85.4769C279.558 86.2605 280.065 86.7676 280.019 86.8137Z" fill="#0A2800"/>
<path d="M289.975 74.8755C290.067 74.9677 287.947 77.7333 285.227 81.0981C282.507 84.4629 280.249 87.1364 280.157 87.0903C280.065 86.9981 282.185 84.2325 284.904 80.8676C287.624 77.5028 289.882 74.8294 289.975 74.8755Z" fill="#0A2800"/>
<path d="M56.0955 0.987305L38.3495 36.8021L43.6502 36.9864L28.6237 65.4723H36.5057L24.1987 90.7316H93.0626L77.8978 65.4723L85.1806 65.1496L70.6611 36.7099L76.008 36.3872L56.0955 0.987305Z" fill="#A8D29F"/>
<path d="M59.0918 42.5177C59.184 42.5177 59.0457 64.1356 58.7692 90.8238C58.4926 117.512 58.1699 147.703 58.0778 147.703C57.9856 147.703 58.1239 117.466 58.4004 90.8238C58.7231 64.1356 58.9996 42.5177 59.0918 42.5177Z" fill="#0A2800"/>
<path d="M67.5728 51.7364C67.665 51.7825 65.8673 54.2255 63.6088 57.1754C61.3502 60.1254 59.4603 62.4301 59.3681 62.384C59.276 62.3379 61.0736 59.895 63.3322 56.945C65.5908 53.995 67.4806 51.6903 67.5728 51.7364Z" fill="#0A2800"/>
<path d="M58.9536 61.6004C58.9075 61.6926 57.1559 60.402 55.0356 58.7887C52.9614 57.1754 51.302 55.7465 51.3481 55.7005C51.3942 55.6083 53.1458 56.8989 55.2661 58.5122C57.3403 60.1254 58.9996 61.5082 58.9536 61.6004Z" fill="#0A2800"/>
<path d="M58.4924 79.1621C58.4463 79.2082 57.9854 78.7933 57.2018 78.148C56.4182 77.5027 55.3581 76.5808 54.1596 75.6129C52.9612 74.6449 51.8549 73.7691 51.0253 73.1238C50.2417 72.4785 49.7346 72.1098 49.7807 72.0637C49.8268 72.0176 50.3339 72.3402 51.2096 72.9395C52.0393 73.5387 53.1917 74.3684 54.3901 75.3363C55.5885 76.3043 56.6487 77.2723 57.3862 77.9637C58.0776 78.6551 58.4924 79.116 58.4924 79.1621Z" fill="#0A2800"/>
<path d="M67.5728 68.3301C67.665 68.3762 65.729 70.9574 63.24 73.9996C60.7509 77.0879 58.7228 79.5309 58.6306 79.4387C58.5384 79.3926 60.4744 76.8113 62.9634 73.7691C65.4064 70.6809 67.4806 68.2379 67.5728 68.3301Z" fill="#0A2800"/>
<path d="M25.5357 48.9247L11.892 76.4887L15.9482 76.627L4.3787 98.5675H10.4631L0.967773 118.019H50.9794L42.3599 98.5675L47.9372 98.291L36.7364 76.3965L40.8849 76.166L25.5357 48.9247Z" fill="#A8D29F"/>
<path d="M27.8406 80.9134C27.9328 80.9134 27.7945 97.5532 27.6101 118.111C27.3796 138.669 27.1492 155.309 27.1031 155.309C27.0109 155.309 27.1492 138.669 27.3335 118.111C27.564 97.5532 27.7945 80.9134 27.8406 80.9134Z" fill="#0A2800"/>
<path d="M34.3394 87.9657C34.3855 88.0118 33.0488 89.9016 31.2972 92.1602C29.5457 94.4188 28.0707 96.2165 28.0246 96.1704C27.9785 96.1243 29.3152 94.2344 31.0668 91.9759C32.8183 89.7173 34.2933 87.9196 34.3394 87.9657Z" fill="#0A2800"/>
<path d="M27.748 95.5714C27.7019 95.6175 26.3652 94.6496 24.7519 93.405C23.1386 92.1605 21.848 91.1004 21.9402 91.0082C21.9863 90.9621 23.323 91.93 24.9363 93.1746C26.5035 94.4652 27.7941 95.5253 27.748 95.5714Z" fill="#0A2800"/>
<path d="M27.3792 109.123C27.3331 109.169 26.9643 108.846 26.3651 108.339C25.7659 107.832 24.9362 107.141 24.0143 106.357C23.0925 105.62 22.2167 104.928 21.6175 104.421C21.0182 103.914 20.6034 103.638 20.6495 103.591C20.6495 103.545 21.1104 103.822 21.7557 104.237C22.401 104.698 23.2768 105.343 24.1987 106.08C25.1206 106.864 25.9503 107.555 26.5034 108.109C27.0565 108.708 27.3792 109.077 27.3792 109.123Z" fill="#0A2800"/>
<path d="M34.3856 100.734C34.4317 100.78 32.9567 102.762 31.0669 105.113C29.177 107.464 27.5637 109.353 27.5177 109.307C27.4716 109.261 28.9466 107.279 30.8364 104.928C32.7262 102.578 34.2934 100.688 34.3856 100.734Z" fill="#0A2800"/>
<path d="M262.872 155.908C244.849 169.413 220.696 171.303 198.249 169.413C175.801 167.524 153.538 162.361 131.044 163.698C118.322 164.435 105.739 167.293 93.017 167.524C80.2491 167.754 66.7436 164.942 57.5249 156.138L262.872 155.908Z" fill="#3E1616" fill-opacity="0.6" style="mix-blend-mode:multiply"/>
<path d="M93.3398 26.7536H154.183C154.183 26.7536 148.79 16.9818 133.119 18.3646C118.138 19.7474 117.401 13.5248 109.795 12.7873C102.19 12.0498 95.875 17.9037 93.3398 26.7536Z" fill="#8FFFEB" style="mix-blend-mode:overlay"/>
<path d="M147.546 43.5317H180.733C180.733 43.5317 177.783 38.1849 169.256 38.9685C161.097 39.706 160.683 36.3411 156.534 35.9263C152.386 35.5115 148.929 38.6919 147.546 43.5317Z" fill="#8FFFEB" style="mix-blend-mode:overlay"/>
<path d="M182.07 12.4646H215.257C215.257 12.4646 212.307 7.11774 203.78 7.90134C195.621 8.63883 195.207 5.274 191.058 4.85916C186.91 4.44431 183.453 7.62477 182.07 12.4646Z" fill="#8FFFEB" style="mix-blend-mode:overlay"/>
<path d="M315.741 155.631C315.741 155.678 245.034 155.77 157.871 155.77C70.6615 155.724 0 155.678 0 155.631C0 155.585 70.6615 155.493 157.871 155.493C245.08 155.493 315.741 155.539 315.741 155.631Z" fill="#263238"/>
<path d="M295.23 110.183C299.701 115.069 300.023 122.536 295.783 127.607C293.939 129.773 291.634 131.571 288.961 132.769L266.329 142.956L250.334 145.445L40.931 144.108L27.7482 141.573C21.4334 140.328 16.8701 134.751 16.9623 128.298L17.1006 119.171C17.1006 117.789 18.0225 116.544 19.3592 116.129L20.2811 115.853C20.2811 115.853 21.0646 106.911 26.4576 104.882C46.0935 96.4012 59.138 93.6816 92.0027 92.2988L119.797 75.7051C119.797 75.7051 130.998 68.5145 141.461 67.5926C151.924 66.6708 175.57 66.6247 186.402 67.27C199.124 68.0075 215.257 73.8153 224.291 78.2403C231.344 81.7434 248.306 90.3629 248.306 90.3629L257.894 91.9762C259.323 92.0223 285.873 93.6816 288.915 94.1426C290.712 94.4191 292.971 95.7559 293.755 98.291C294.538 100.826 295.137 110.045 295.137 110.045" fill="#323232"/>
<path d="M214.151 78.7934C209.634 76.5348 197.465 73.4005 190.689 72.1559C183.913 70.8653 170.085 70.727 164.6 70.8653C159.069 71.0036 143.766 71.2802 135.699 73.5848C131.551 74.7833 124.867 78.2403 120.949 81.0981C119.567 82.1122 113.667 86.7676 112.33 87.8278L102.005 97.3231L228.301 93.359C228.301 93.359 229.039 88.9801 226.78 86.3989C224.476 83.8637 214.151 78.7934 214.151 78.7934Z" fill="#263238"/>
<path d="M26.8264 115.3L20.4194 115.207C20.6499 113.502 21.5257 108.893 24.2452 106.357L32.7264 106.496C34.2475 106.496 35.2155 108.201 34.3858 109.538L32.8647 112.027C31.528 114.101 29.2694 115.346 26.8264 115.3Z" fill="#FAFAFA"/>
<path d="M27.5639 114.931C28.2092 112.119 29.085 108.431 31.4357 106.449H32.6803C34.2014 106.449 35.1693 108.155 34.3396 109.492L32.8185 111.981C31.6662 113.87 29.6842 115.069 27.4717 115.253C27.5178 115.161 27.5639 115.069 27.5639 114.931Z" fill="#E0E0E0"/>
<g opacity="0.7">
<path d="M89.5596 144.523C90.2049 141.342 90.3892 137.932 89.9744 134.521C88.315 120.324 79.0502 110.137 64.9916 109.907C52.7768 109.722 42.6823 117.374 40.6542 131.478C40.055 135.719 40.1933 140.052 41.0691 144.154L89.5596 144.523Z" fill="black"/>
</g>
<g opacity="0.7">
<path d="M266.283 143.048C266.283 142.541 266.236 141.988 266.19 141.435C265.96 123.55 253.929 111.151 239.64 110.921C226.596 110.736 215.81 121.199 215.626 134.244C215.58 138.208 215.395 141.988 215.856 145.26L250.242 145.491L266.283 143.048Z" fill="black"/>
</g>
<path d="M218.714 134.29C218.53 145.675 227.656 155.032 239.041 155.217C250.427 155.401 259.784 146.274 259.968 134.889C260.152 123.504 251.026 114.147 239.641 113.963C228.209 113.825 218.852 122.905 218.714 134.29Z" fill="#263238"/>
<path d="M218.714 134.244V134.29C218.53 145.675 227.656 155.032 239.041 155.217C250.427 155.401 259.784 146.275 259.968 134.889V134.843L218.714 134.244Z" fill="#263238"/>
<path d="M224.844 134.382C224.706 142.357 231.113 148.948 239.134 149.086C247.108 149.225 253.699 142.817 253.837 134.797C253.976 126.823 247.569 120.232 239.548 120.093C231.528 120.001 224.937 126.408 224.844 134.382Z" fill="#FAFAFA"/>
<path d="M239.502 120.139C231.528 120.001 224.937 126.408 224.798 134.428L253.745 134.843C253.883 126.823 247.522 120.232 239.502 120.139Z" fill="#E0E0E0"/>
<path d="M230.514 134.475C230.422 139.36 234.34 143.371 239.226 143.417C244.112 143.509 248.122 139.591 248.168 134.705C248.26 129.819 244.342 125.809 239.456 125.763C234.571 125.717 230.56 129.589 230.514 134.475Z" fill="#263238"/>
<path d="M66.378 155.704C77.7458 155.193 86.5469 145.563 86.0358 134.195C85.5247 122.828 75.8949 114.027 64.5271 114.538C53.1593 115.049 44.3582 124.679 44.8693 136.046C45.3804 147.414 55.0102 156.215 66.378 155.704Z" fill="#263238"/>
<path d="M44.8489 134.797V134.843C44.6646 146.228 53.7911 155.585 65.1762 155.769C76.5614 155.954 85.9184 146.827 86.1027 135.442V135.396L44.8489 134.797Z" fill="#263238"/>
<path d="M50.9792 134.935C50.841 142.91 57.248 149.501 65.2683 149.639C73.2425 149.778 79.8339 143.371 79.9721 135.35C80.1104 127.376 73.7034 120.785 65.6831 120.646C57.6628 120.554 51.0714 126.915 50.9792 134.935Z" fill="#FAFAFA"/>
<path d="M65.637 120.646C57.6628 120.508 51.0714 126.915 50.9331 134.935L79.8799 135.35C80.0182 127.33 73.6573 120.785 65.637 120.646Z" fill="#E0E0E0"/>
<path d="M56.6486 135.027C56.5564 139.913 60.4743 143.923 65.3603 143.97C70.2462 144.062 74.2563 140.144 74.3024 135.258C74.3946 130.372 70.4767 126.362 65.5907 126.316C60.7048 126.27 56.6947 130.141 56.6486 135.027Z" fill="#263238"/>
<g opacity="0.4">
<path d="M25.5816 130.418C25.5356 132.723 24.3832 134.567 22.9543 134.567C21.5254 134.567 20.4192 132.677 20.4653 130.326C20.5114 128.021 21.6637 126.178 23.0926 126.178C24.4754 126.224 25.5816 128.114 25.5816 130.418Z" fill="black"/>
</g>
<path d="M295.23 110.183C295.23 110.183 295.092 110.183 294.815 110.229C294.538 110.229 294.124 110.275 293.663 110.275C292.695 110.321 291.22 110.321 289.468 110.414C287.717 110.46 285.596 110.598 283.245 110.782C280.941 111.013 278.36 111.243 275.732 111.889C274.442 112.211 273.151 112.626 272.045 113.179C270.892 113.732 269.924 114.424 269.003 115.161C267.159 116.59 265.776 118.203 264.485 119.448C263.241 120.693 262.088 121.614 261.259 122.121C260.844 122.398 260.475 122.582 260.245 122.675C260.014 122.767 259.876 122.813 259.876 122.813C259.876 122.767 260.383 122.582 261.167 122.029C261.996 121.476 263.103 120.554 264.301 119.31C265.546 118.065 266.928 116.452 268.772 114.977C269.694 114.239 270.708 113.502 271.86 112.949C273.013 112.396 274.303 111.981 275.594 111.658C278.221 111.013 280.802 110.782 283.153 110.552C285.504 110.368 287.624 110.275 289.376 110.275C291.127 110.229 292.602 110.229 293.57 110.229C294.031 110.229 294.4 110.229 294.723 110.229C295.092 110.137 295.23 110.137 295.23 110.183Z" fill="#263238"/>
<g opacity="0.5">
<path d="M265.592 143.417C265.592 143.417 265.684 143.371 265.822 143.278C266.006 143.186 266.237 143.002 266.513 142.771C267.067 142.264 267.85 141.435 268.403 140.098C268.956 138.761 269.233 136.964 269.049 134.935C268.864 132.907 268.403 130.557 267.666 128.114C266.928 125.625 265.868 122.997 264.347 120.324C262.826 117.696 260.798 115.115 258.217 112.857C255.635 110.598 252.501 108.708 248.952 107.648C245.403 106.588 241.485 106.265 237.567 106.68C233.649 107.095 229.869 108.109 226.458 109.584C223.047 111.059 219.959 113.041 217.654 115.576C215.303 118.065 213.736 120.969 212.63 123.827C211.524 126.685 210.878 129.45 210.464 131.985C210.279 133.276 210.095 134.475 210.003 135.673C209.91 136.825 209.818 137.932 209.864 138.946C209.91 140.974 210.602 142.725 211.662 143.739C212.676 144.799 213.828 145.122 214.566 145.168C215.35 145.214 215.718 145.03 215.718 145.076C215.718 145.076 215.626 145.122 215.442 145.168C215.257 145.214 214.981 145.26 214.566 145.26C213.828 145.214 212.63 144.892 211.57 143.832C210.464 142.817 209.772 141.02 209.726 138.946C209.68 137.932 209.726 136.779 209.818 135.627C209.91 134.475 210.049 133.23 210.279 131.939C210.694 129.358 211.293 126.592 212.4 123.689C212.953 122.26 213.644 120.831 214.428 119.402C215.257 117.973 216.271 116.636 217.424 115.346C219.775 112.81 222.863 110.736 226.32 109.261C229.777 107.786 233.556 106.772 237.521 106.357C241.485 105.943 245.449 106.265 249.044 107.325C252.639 108.432 255.82 110.321 258.401 112.626C260.982 114.885 263.01 117.512 264.578 120.185C266.099 122.859 267.159 125.532 267.896 128.021C268.588 130.51 269.049 132.861 269.233 134.889C269.371 136.964 269.095 138.761 268.495 140.098C267.896 141.435 267.113 142.31 266.513 142.771C265.96 143.278 265.592 143.417 265.592 143.417Z" fill="white"/>
</g>
<path d="M41.1152 131.525C41.1152 131.525 40.8847 131.248 40.4699 130.741C40.055 130.234 39.3636 129.543 38.4878 128.805C36.6902 127.284 33.7402 125.763 30.191 125.025C26.6418 124.288 23.3691 124.334 20.9723 124.426C19.7738 124.472 18.8059 124.518 18.1605 124.564C17.5152 124.61 17.1465 124.61 17.1465 124.61C17.1465 124.61 17.2387 124.564 17.423 124.564C17.6535 124.518 17.884 124.518 18.1605 124.472C18.8059 124.38 19.7738 124.334 20.9723 124.242C23.323 124.103 26.6418 124.011 30.2371 124.749C33.8324 125.486 36.8285 127.1 38.6261 128.667C39.548 129.45 40.1933 130.188 40.5621 130.695C40.7925 130.971 40.8847 131.156 41.023 131.34C41.0691 131.432 41.1152 131.525 41.1152 131.525Z" fill="#263238"/>
<path d="M40.9769 116.175C40.9769 116.268 36.0449 116.268 29.9605 116.175C23.8762 116.083 18.9902 115.945 18.9902 115.853C18.9902 115.761 23.9223 115.761 30.0066 115.853C36.0449 115.945 40.9769 116.083 40.9769 116.175Z" fill="#263238"/>
<g opacity="0.5">
<path d="M96.7965 142.403C96.7965 142.403 96.7965 142.31 96.7965 142.126C96.7965 141.942 96.7965 141.665 96.7965 141.296C96.7965 140.928 96.7965 140.467 96.7504 139.96C96.7504 139.407 96.7043 138.807 96.6121 138.116C96.3817 135.35 95.7363 131.386 94.1231 126.731C93.2934 124.38 92.2332 121.937 90.8504 119.356C89.4676 116.821 87.8082 114.193 85.6418 111.75C83.4754 109.307 80.6637 107.279 77.3911 105.896C74.1184 104.514 70.477 103.776 66.7435 103.684C64.8536 103.638 63.0099 103.822 61.2122 104.099C59.4146 104.421 57.663 104.836 55.9575 105.389C54.2982 105.989 52.6849 106.634 51.2099 107.464L50.6568 107.74L50.1037 108.063C49.7349 108.293 49.3662 108.478 49.0435 108.708C48.7208 108.939 48.3521 109.169 48.0294 109.4L47.5224 109.768L47.0615 110.137C44.4802 112.119 42.3599 114.424 40.7466 116.821C39.1334 119.218 37.9349 121.66 37.1052 123.965C36.2756 126.27 35.7685 128.482 35.492 130.418C35.3998 131.386 35.2615 132.308 35.2615 133.138C35.2154 133.967 35.2154 134.751 35.2154 135.442C35.2154 136.134 35.3076 136.733 35.3076 137.286C35.3537 137.839 35.3998 138.254 35.4459 138.623C35.492 138.992 35.5381 139.268 35.5381 139.453C35.492 139.268 35.4459 138.992 35.3998 138.623C35.3537 138.254 35.2615 137.839 35.2154 137.286C35.1693 136.733 35.0771 136.134 35.0771 135.442C35.0771 134.751 35.031 133.967 35.0771 133.138C35.0771 132.308 35.2154 131.386 35.3076 130.418C35.5842 128.482 36.0451 126.27 36.8748 123.919C37.7045 121.568 38.9029 119.125 40.5162 116.682C42.1295 114.239 44.2498 111.935 46.8771 109.907L47.338 109.538L47.8451 109.169C48.1677 108.939 48.5365 108.708 48.8591 108.432C49.2279 108.201 49.5966 107.971 49.9193 107.786L50.4724 107.464L51.0255 107.141C52.5466 106.311 54.1599 105.62 55.8193 105.021C57.5247 104.468 59.2763 104.007 61.12 103.684C62.9638 103.407 64.8075 103.269 66.6974 103.269C70.477 103.361 74.1645 104.099 77.4833 105.482C80.802 106.864 83.6598 108.939 85.8262 111.382C88.0387 113.825 89.6981 116.498 91.0809 119.033C92.4637 121.614 93.5239 124.103 94.3535 126.454C95.9668 131.156 96.566 135.12 96.7965 137.885C96.8887 140.882 96.7965 142.403 96.7965 142.403Z" fill="white"/>
</g>
<path d="M258.032 92.2988C258.032 92.2988 258.032 92.391 258.032 92.6215C257.986 92.852 257.986 93.1285 257.94 93.4973C257.848 94.2348 257.663 95.2949 257.571 96.6316C257.479 97.9683 257.433 99.5816 257.802 101.287C258.124 102.993 258.954 104.79 260.383 106.265C261.812 107.74 263.517 108.708 265.13 109.353C266.744 109.999 268.311 110.368 269.648 110.644C270.938 110.921 272.044 111.059 272.782 111.197C273.105 111.243 273.427 111.289 273.612 111.335C273.796 111.382 273.888 111.382 273.888 111.428C273.888 111.428 273.796 111.428 273.566 111.428C273.335 111.382 273.059 111.382 272.69 111.335C271.952 111.243 270.846 111.105 269.555 110.875C268.219 110.644 266.652 110.275 264.992 109.63C263.333 108.985 261.581 107.971 260.152 106.45C258.677 104.975 257.848 103.085 257.525 101.333C257.202 99.5816 257.248 97.9222 257.387 96.5855C257.525 95.2488 257.709 94.1887 257.848 93.4512C257.894 93.0824 257.986 92.8059 258.032 92.6215C257.986 92.4371 257.986 92.2988 258.032 92.2988Z" fill="#263238"/>
<path d="M153.261 103.592C153.261 103.592 153.353 103.592 153.538 103.546C153.722 103.546 153.953 103.546 154.275 103.592C154.598 103.638 155.013 103.776 155.289 104.191C155.566 104.56 155.704 105.159 155.428 105.712C155.151 106.265 154.598 106.68 153.953 106.864C153.261 107.049 152.524 107.003 151.786 106.957C150.311 106.864 148.652 106.772 146.946 106.68C146.532 106.634 146.071 106.634 145.656 106.45C145.241 106.265 144.872 105.943 144.734 105.528C144.596 105.067 144.734 104.606 144.964 104.283C145.195 103.961 145.564 103.684 145.932 103.592C146.67 103.315 147.407 103.407 148.053 103.361C148.698 103.361 149.343 103.361 149.896 103.407C151.003 103.454 151.878 103.5 152.57 103.5C153.215 103.5 153.538 103.546 153.538 103.546C153.492 103.592 153.399 103.638 153.261 103.592C153.077 103.638 152.846 103.638 152.524 103.638C151.878 103.638 150.957 103.638 149.85 103.638C149.297 103.638 148.652 103.638 148.007 103.638C147.361 103.638 146.624 103.638 145.932 103.868C145.61 104.007 145.287 104.191 145.103 104.468C144.872 104.744 144.78 105.113 144.918 105.482C145.01 105.804 145.333 106.081 145.702 106.219C146.071 106.357 146.485 106.404 146.9 106.45C148.606 106.542 150.265 106.634 151.74 106.726C152.478 106.772 153.169 106.818 153.814 106.634C154.414 106.496 154.921 106.081 155.197 105.62C155.428 105.159 155.335 104.606 155.105 104.283C154.874 103.914 154.506 103.776 154.229 103.684C153.584 103.638 153.261 103.638 153.261 103.592Z" fill="#263238"/>
<path d="M218.437 103.085C218.437 103.085 218.53 103.085 218.714 103.039C218.898 103.039 219.129 103.039 219.452 103.085C219.774 103.131 220.189 103.269 220.466 103.684C220.742 104.053 220.88 104.652 220.604 105.205C220.327 105.758 219.774 106.173 219.129 106.357C218.437 106.542 217.7 106.496 216.962 106.45C215.487 106.357 213.828 106.265 212.123 106.173C211.708 106.127 211.247 106.127 210.832 105.943C210.417 105.758 210.048 105.435 209.91 105.021C209.772 104.56 209.91 104.099 210.141 103.776C210.371 103.453 210.74 103.177 211.109 103.085C211.846 102.808 212.584 102.9 213.229 102.854C213.874 102.854 214.52 102.854 215.073 102.9C216.179 102.946 217.055 102.993 217.746 102.993C218.391 102.993 218.714 103.039 218.714 103.039C218.714 103.085 218.622 103.085 218.437 103.085C218.253 103.131 218.023 103.131 217.7 103.131C217.055 103.131 216.133 103.131 215.027 103.131C214.473 103.131 213.828 103.131 213.183 103.131C212.537 103.131 211.8 103.131 211.109 103.361C210.786 103.5 210.463 103.684 210.279 103.96C210.048 104.237 209.956 104.606 210.095 104.975C210.187 105.297 210.509 105.574 210.878 105.712C211.247 105.85 211.662 105.896 212.077 105.943C213.782 106.035 215.441 106.127 216.916 106.219C217.654 106.265 218.345 106.311 218.991 106.127C219.59 105.989 220.097 105.574 220.373 105.113C220.604 104.652 220.512 104.099 220.281 103.776C220.051 103.407 219.682 103.269 219.405 103.177C218.806 103.085 218.437 103.085 218.437 103.085Z" fill="#263238"/>
<path d="M228.302 93.359C228.302 93.359 228.302 93.4512 228.256 93.6356C228.209 93.8199 228.117 94.0504 228.025 94.4192C227.841 95.1106 227.564 96.0785 227.195 97.4152C226.458 100.043 225.398 103.868 224.015 108.708V108.754H223.969C221.849 109.722 219.682 111.105 217.608 112.995C216.548 113.917 215.58 114.977 214.658 116.129C213.736 117.282 212.86 118.572 212.077 119.955C210.509 122.721 209.265 125.901 208.389 129.312C207.513 132.769 206.96 136.457 206.96 140.328V140.421H206.868C193.224 140.421 177.414 140.421 160.636 140.421C138.189 140.421 117.446 140.421 100.991 140.375H100.899V140.282C99.4238 128.068 98.4559 117.973 97.9027 110.967C97.6262 107.464 97.4418 104.744 97.3035 102.854C97.2574 101.932 97.2113 101.195 97.1652 100.734C97.1191 100.273 97.1191 99.9965 97.1191 99.9965C97.1191 99.9965 97.1652 100.227 97.1652 100.734C97.2113 101.195 97.2574 101.932 97.3496 102.854C97.4879 104.698 97.7184 107.464 97.9949 110.967C98.5941 117.973 99.5621 128.021 101.083 140.236L100.991 140.144C117.446 140.144 138.189 140.144 160.636 140.098C177.414 140.098 193.224 140.098 206.868 140.098L206.776 140.19C206.776 136.272 207.375 132.585 208.205 129.128C209.081 125.671 210.371 122.49 211.938 119.725C212.722 118.342 213.598 117.051 214.566 115.899C215.534 114.746 216.502 113.64 217.562 112.764C219.636 110.875 221.849 109.492 223.969 108.524L223.923 108.57C225.306 103.73 226.412 99.9043 227.149 97.277C227.518 95.9863 227.795 94.9723 228.025 94.327C228.117 94.0043 228.209 93.7278 228.256 93.5434C228.256 93.4512 228.302 93.359 228.302 93.359Z" fill="#263238"/>
<path d="M161.835 95.7098C161.835 95.7098 161.835 95.7559 161.835 95.8481C161.835 95.9402 161.835 96.0324 161.789 96.1707C161.742 96.4934 161.696 96.9082 161.65 97.4613C161.558 98.0145 161.466 98.7059 161.42 99.4895C161.328 100.273 161.235 101.195 161.143 102.209C161.051 103.223 160.959 104.329 160.867 105.482C160.774 106.68 160.728 107.925 160.682 109.261C160.59 111.935 160.59 114.885 160.682 117.973C160.774 121.061 161.005 123.965 161.281 126.639C161.42 127.975 161.558 129.22 161.742 130.418C161.881 131.617 162.065 132.677 162.203 133.691C162.342 134.705 162.526 135.581 162.664 136.364C162.803 137.148 162.941 137.839 163.033 138.392C163.125 138.946 163.217 139.36 163.264 139.683C163.31 139.821 163.31 139.914 163.31 140.006C163.31 140.098 163.31 140.098 163.31 140.144C163.31 140.144 163.31 140.098 163.264 140.052C163.264 139.96 163.217 139.867 163.171 139.729C163.079 139.407 162.987 138.992 162.895 138.439C162.756 137.885 162.618 137.194 162.48 136.41C162.342 135.627 162.157 134.705 161.973 133.737C161.789 132.723 161.604 131.663 161.466 130.464C161.281 129.266 161.143 128.021 161.005 126.685C160.728 124.011 160.498 121.107 160.406 118.019C160.314 114.931 160.36 111.981 160.452 109.307C160.498 107.971 160.59 106.68 160.682 105.528C160.774 104.329 160.867 103.223 160.959 102.209C161.051 101.195 161.189 100.273 161.281 99.4895C161.374 98.7059 161.466 98.0145 161.558 97.4613C161.65 96.9082 161.696 96.4934 161.742 96.1707C161.789 96.0324 161.789 95.9402 161.789 95.8481C161.789 95.7098 161.835 95.7098 161.835 95.7098Z" fill="#263238"/>
<path d="M97.6262 94.373C96.1513 95.4793 93.9388 95.7558 92.1411 95.3871C90.3435 95.0183 88.9145 94.1886 87.9927 92.5754L92.0489 92.391L97.6262 94.373Z" fill="#263238"/>
<path d="M92.0488 92.391C92.0488 92.391 96.1512 94.8801 97.3496 94.5574C98.548 94.2348 117.631 79.116 129.154 73.3082C129.154 73.3082 127.633 72.709 125.651 72.5247C125.651 72.5247 120.304 75.2442 113.621 79.2543C108.55 82.2965 103.342 85.5231 100.945 86.9981C95.598 90.2246 92.0488 92.391 92.0488 92.391Z" fill="#455A64"/>
<path d="M105.139 95.6176C105.139 95.6176 105.093 95.6637 105.001 95.7098C104.909 95.7558 104.771 95.848 104.586 95.9402C104.217 96.1707 103.71 96.4472 103.019 96.816C101.636 97.5996 99.6541 98.7058 97.119 100.135C93.4315 99.9965 88.6377 99.9043 83.1987 100.135C80.4792 100.273 77.5753 100.457 74.5792 100.734C71.5831 101.057 68.4487 101.471 65.2222 101.978C59.5987 102.854 54.298 103.961 49.412 104.836C44.5722 105.712 40.1011 106.219 36.4136 106.403C32.6801 106.634 29.6379 106.542 27.5637 106.496C26.5035 106.45 25.7199 106.403 25.1668 106.403C24.8902 106.403 24.7059 106.357 24.5215 106.357C24.6598 106.357 24.8902 106.357 25.1668 106.357C25.7199 106.357 26.5035 106.403 27.5637 106.403C29.6379 106.45 32.6801 106.45 36.4136 106.219C40.1472 105.989 44.5722 105.482 49.412 104.606C54.2519 103.684 59.5987 102.578 65.2222 101.702C68.4487 101.195 71.5831 100.78 74.5792 100.457C77.6214 100.135 80.5253 99.9504 83.2448 99.8582C88.6838 99.6277 93.4776 99.766 97.1651 99.9504H97.119C99.6541 98.5676 101.682 97.4613 103.065 96.6777C103.756 96.309 104.263 96.0324 104.632 95.8019C104.817 95.7098 104.955 95.6176 105.047 95.5715C105.093 95.6176 105.139 95.6176 105.139 95.6176Z" fill="#263238"/>
<path d="M109.472 96.0785C138.465 94.7879 196.912 93.7278 225.905 92.391C225.905 92.391 226.873 89.2106 224.153 87.2286C223.139 86.4911 217.147 81.9739 210.095 79.2544C199.078 75.0598 187.832 73.3544 183.314 72.9856C178.152 72.5708 168.703 72.202 168.703 72.202C168.703 72.202 151.418 72.8934 146.578 73.3083C139.479 73.9536 133.487 75.8895 129.062 78.0559C123.024 81.052 112.515 89.8559 112.515 89.8559L105.14 96.0324H109.472V96.0785Z" fill="#455A64"/>
<path d="M162.849 71.3723L157.225 95.2949L167.366 94.9723L169.394 71.3723H162.849Z" fill="#263238"/>
<path d="M206.684 77.134L205.716 93.359H207.099L208.067 77.6411L206.684 77.134Z" fill="#263238"/>
<path d="M110.578 90.5934C111.039 91.1926 113.62 97.0004 113.62 97.0004L103.849 96.3551L110.578 90.5934Z" fill="#263238"/>
<path d="M119.751 96.4012L112.284 96.6317C111.316 96.6317 110.533 94.8801 110.579 92.7137C110.625 90.7778 111.27 89.1645 112.146 88.8879L119.244 86.6293L119.751 96.4012Z" fill="#323232"/>
<path d="M165.983 71.0958C166.029 71.0958 165.246 76.5348 164.232 83.2645C163.171 89.9942 162.296 95.4332 162.249 95.3871C162.203 95.3871 162.987 89.9481 164.001 83.2184C165.061 76.5348 165.937 71.0958 165.983 71.0958Z" fill="#455A64"/>
<path d="M110.855 90.2246C110.901 90.2246 110.487 91.423 109.703 92.6676C108.919 93.9582 108.09 94.834 108.044 94.7879C107.997 94.7418 108.735 93.7738 109.519 92.5293C110.302 91.2848 110.809 90.2246 110.855 90.2246Z" fill="#455A64"/>
<path d="M152.247 75.7051C152.247 75.7051 152.201 75.7973 152.155 75.8895C152.063 76.0278 151.925 76.2122 151.786 76.4426C151.464 76.9497 151.003 77.595 150.496 78.4247C149.389 80.084 147.868 82.3887 146.209 84.9239C144.55 87.459 143.075 89.7637 142.014 91.4692C141.507 92.2988 141.046 92.9442 140.724 93.4512C140.586 93.6817 140.447 93.8199 140.355 94.0043C140.263 94.1426 140.217 94.1887 140.217 94.1887C140.217 94.1887 140.263 94.0965 140.309 94.0043C140.401 93.866 140.493 93.6817 140.632 93.4512C140.908 92.9903 141.323 92.2988 141.83 91.4231C142.844 89.7176 144.319 87.3668 145.979 84.8317C147.638 82.2965 149.205 79.9918 150.357 78.3786C150.911 77.5489 151.418 76.9036 151.74 76.4426C151.878 76.2583 152.017 76.0739 152.109 75.9356C152.201 75.7512 152.247 75.7051 152.247 75.7051Z" fill="#EBEBEB"/>
<path d="M148.006 79.3465C148.053 79.3926 147.039 80.9137 145.748 82.7574C144.457 84.6012 143.305 86.0762 143.259 86.0301C143.213 85.984 144.227 84.4629 145.517 82.6192C146.808 80.7754 147.96 79.3004 148.006 79.3465Z" fill="#EBEBEB"/>
<path d="M295.137 108.893C295.137 108.893 292.74 109.031 290.897 108.247C287.993 107.003 286.656 103.592 287.993 100.78C287.993 100.78 287.993 100.734 288.039 100.734C288.915 99.0285 290.666 97.784 292.602 97.784H293.616C293.616 97.784 294.077 98.5215 294.261 100.181C294.538 102.393 294.953 105.712 295.137 108.893Z" fill="#F5F5F5"/>
<path d="M188.661 76.4887C188.707 76.5348 186.495 80.084 183.729 84.509C180.963 88.8879 178.659 92.4371 178.567 92.391C178.521 92.3449 180.733 88.7957 183.499 84.3707C186.31 79.9918 188.615 76.4426 188.661 76.4887Z" fill="#EBEBEB"/>
<path d="M187.924 81.0059C187.97 81.052 187.232 82.2965 186.264 83.7715C185.296 85.2926 184.467 86.4449 184.421 86.3988C184.374 86.3527 185.112 85.1082 186.08 83.6332C187.002 82.1582 187.831 80.9598 187.924 81.0059Z" fill="#EBEBEB"/>
<path d="M118.045 88.0119C118.091 88.058 116.847 88.6111 115.234 89.072C113.62 89.533 112.284 89.7634 112.284 89.6712C112.284 89.6251 113.574 89.3025 115.141 88.8416C116.755 88.4267 118.045 87.9658 118.045 88.0119Z" fill="#EBEBEB"/>
<path d="M158.193 98.1527C158.193 98.1988 146.025 98.291 131.044 98.291C116.018 98.291 103.895 98.2449 103.895 98.1527C103.895 98.0606 116.064 98.0145 131.044 98.0145C146.025 98.0145 158.193 98.1067 158.193 98.1527Z" fill="#EBEBEB"/>
<path d="M154.183 102.993C154.183 103.039 152.431 103.131 150.219 103.131C148.053 103.131 146.255 103.085 146.255 102.993C146.255 102.946 148.006 102.854 150.219 102.854C152.431 102.854 154.183 102.9 154.183 102.993Z" fill="#EBEBEB"/>
<path d="M65.8674 108.478C65.8674 108.478 65.7752 108.478 65.5448 108.478C65.3604 108.478 65.0377 108.478 64.669 108.478C63.9315 108.478 62.8252 108.524 61.5346 108.662C58.9073 108.985 55.2659 109.907 51.7628 112.027C48.2597 114.147 45.7706 116.959 44.2956 119.171C43.5581 120.278 43.005 121.2 42.6823 121.891C42.4979 122.214 42.4058 122.49 42.3136 122.675C42.2214 122.859 42.1753 122.951 42.1753 122.951C42.1753 122.951 42.2214 122.859 42.2675 122.675C42.3597 122.49 42.4519 122.214 42.6362 121.891C42.9589 121.2 43.4659 120.232 44.2034 119.125C45.6784 116.867 48.1675 114.009 51.6706 111.889C55.1737 109.722 58.8612 108.8 61.5346 108.524C62.8713 108.385 63.9776 108.385 64.7151 108.385C65.0838 108.385 65.3604 108.432 65.5909 108.432C65.7752 108.432 65.8674 108.432 65.8674 108.478Z" fill="#EBEBEB"/>
<path d="M204.794 96.8621C204.794 96.9082 196.727 97.0004 186.817 97.0004C176.861 97.0004 168.841 96.9543 168.841 96.8621C168.841 96.7699 176.907 96.7238 186.817 96.7238C196.727 96.7699 204.794 96.816 204.794 96.8621Z" fill="#EBEBEB"/>
<path d="M220.558 102.255C220.558 102.301 220.051 102.301 219.267 102.255C218.484 102.255 217.378 102.209 216.133 102.209C214.888 102.209 213.782 102.209 212.999 102.209C212.215 102.209 211.708 102.209 211.708 102.209C211.708 102.163 212.215 102.117 212.999 102.071C213.782 102.025 214.888 101.979 216.133 101.979C217.378 101.979 218.484 102.025 219.267 102.117C220.097 102.163 220.558 102.255 220.558 102.255Z" fill="#EBEBEB"/>
<path d="M249.781 60.4942C248.03 60.4942 246.555 59.0653 246.601 57.2676V53.5801C246.601 53.5801 243.928 53.1653 243.928 50.538C243.881 47.8645 244.342 41.7802 244.342 41.7802C247.431 40.4434 250.98 40.9044 253.607 42.9325L252.962 57.4981C252.824 59.2036 251.441 60.4942 249.781 60.4942Z" fill="#B78876"/>
<path d="M246.555 53.5803C246.555 53.5803 248.215 53.7186 250.012 52.6123C250.012 52.6123 249.183 54.5021 246.555 54.2717V53.5803Z" fill="#AA6550"/>
<path d="M253.285 46.0209C253.331 46.0209 255.128 45.4678 255.036 47.3115C254.99 49.1092 253.193 48.6943 253.146 48.6482C253.193 48.556 253.285 46.0209 253.285 46.0209Z" fill="#B78876"/>
<path d="M253.746 47.9568C253.746 47.9568 253.792 48.0029 253.838 48.0029C253.884 48.049 253.976 48.049 254.068 48.0029C254.253 47.9568 254.437 47.6342 254.437 47.3115C254.437 47.1272 254.437 46.9889 254.345 46.8506C254.299 46.7123 254.207 46.6201 254.114 46.6201C254.022 46.574 253.93 46.6662 253.93 46.7123C253.884 46.7584 253.93 46.8045 253.884 46.8045C253.884 46.8045 253.838 46.7584 253.884 46.7123C253.884 46.6662 253.93 46.6201 253.976 46.6201C254.022 46.574 254.068 46.574 254.16 46.574C254.299 46.574 254.437 46.7123 254.483 46.8506C254.529 46.9889 254.575 47.1733 254.575 47.3576C254.529 47.7264 254.345 48.049 254.068 48.1412C253.93 48.1873 253.838 48.1412 253.792 48.0951C253.746 48.0029 253.746 47.9568 253.746 47.9568Z" fill="#AA6550"/>
<path d="M245.264 45.8825C245.264 46.0668 245.402 46.2512 245.633 46.2512C245.863 46.2512 246.002 46.1129 246.002 45.9286C246.002 45.7442 245.863 45.5598 245.633 45.5598C245.449 45.5598 245.264 45.6981 245.264 45.8825Z" fill="#263238"/>
<path d="M244.803 45.5137C244.849 45.5598 245.126 45.3293 245.541 45.3293C245.956 45.3293 246.232 45.5137 246.278 45.4676C246.278 45.4676 246.232 45.3754 246.14 45.2833C246.002 45.1911 245.771 45.0989 245.541 45.0989C245.264 45.0989 245.08 45.1911 244.942 45.2833C244.849 45.4215 244.803 45.5137 244.803 45.5137Z" fill="#263238"/>
<path d="M249.274 45.8825C249.274 46.0668 249.413 46.2512 249.643 46.2512C249.874 46.2512 250.012 46.1129 250.012 45.9286C250.012 45.7442 249.874 45.5598 249.643 45.5598C249.459 45.5598 249.274 45.6981 249.274 45.8825Z" fill="#263238"/>
<path d="M248.813 45.6059C248.86 45.652 249.136 45.4215 249.551 45.4215C249.966 45.4215 250.242 45.6059 250.288 45.5598C250.288 45.5598 250.242 45.4676 250.15 45.3754C250.012 45.2832 249.781 45.191 249.551 45.191C249.274 45.191 249.09 45.2832 248.952 45.3754C248.86 45.4676 248.813 45.5598 248.813 45.6059Z" fill="#263238"/>
<path d="M247.338 48.602C247.338 48.5559 247.108 48.5559 246.693 48.4637C246.601 48.4637 246.508 48.4176 246.462 48.3715C246.416 48.2793 246.462 48.1871 246.555 48.0488C246.647 47.8184 246.739 47.5418 246.877 47.2653C247.292 46.159 247.615 45.191 247.569 45.191C247.522 45.191 247.154 46.0668 246.693 47.2192C246.601 47.4957 246.508 47.7723 246.416 48.0028C246.37 48.141 246.324 48.2332 246.37 48.4176C246.416 48.5098 246.462 48.5559 246.555 48.5559C246.601 48.5559 246.693 48.5559 246.739 48.602C247.108 48.6481 247.338 48.6481 247.338 48.602Z" fill="#263238"/>
<path d="M248.537 48.9246C248.491 48.9246 248.491 49.3856 248.076 49.6621C247.707 49.9848 247.246 49.9387 247.2 49.9848C247.2 50.0309 247.292 50.077 247.523 50.077C247.707 50.077 247.984 50.0309 248.214 49.8465C248.445 49.6621 248.537 49.3856 248.537 49.2012C248.629 49.0168 248.583 48.8786 248.537 48.9246Z" fill="#263238"/>
<path d="M248.721 43.9926C248.767 44.0848 249.182 44.0387 249.643 44.1309C250.104 44.177 250.519 44.3153 250.565 44.2231C250.611 44.177 250.519 44.0848 250.381 43.9465C250.242 43.8544 249.966 43.7161 249.689 43.7161C249.413 43.67 249.136 43.7161 248.952 43.8083C248.813 43.8544 248.721 43.9466 248.721 43.9926Z" fill="#263238"/>
<path d="M244.988 44.3614C245.08 44.4536 245.356 44.3614 245.679 44.3614C246.002 44.3614 246.324 44.4075 246.37 44.3153C246.416 44.2692 246.37 44.177 246.232 44.0848C246.094 43.9926 245.909 43.9465 245.679 43.9465C245.448 43.9465 245.264 44.0387 245.126 44.1309C244.987 44.2231 244.941 44.3153 244.988 44.3614Z" fill="#263238"/>
<path d="M243.006 40.1208C242.96 39.7981 243.098 39.4294 243.375 39.245C243.651 39.0606 244.066 39.0606 244.296 39.2911C244.158 38.8302 244.527 38.3231 244.988 38.3231C245.403 38.277 245.771 38.5997 246.186 38.738C246.601 38.8302 247.016 38.738 247.431 38.5997C247.846 38.4614 248.168 38.2309 248.583 38.0927C249.413 37.77 250.381 37.8161 251.164 38.1848C251.948 38.5536 252.593 39.245 252.916 40.0747C253.515 39.8903 254.16 40.1669 254.529 40.6739C254.898 41.1809 254.99 41.8262 254.898 42.4255C254.852 42.8403 254.714 43.2091 254.575 43.6239C254.575 43.67 254.575 43.67 254.575 43.7161C254.529 45.1911 254.391 46.8965 253.746 46.8965C252.639 46.8965 252.916 44.8684 252.916 44.8684C251.579 44.3614 252.086 42.3794 251.764 42.0567C251.441 41.7341 250.75 41.0427 247.938 42.4716C246.878 43.0247 245.403 43.0247 244.619 42.8403C244.619 42.8403 244.573 42.8403 244.527 42.8403C244.527 42.8403 244.527 42.8403 244.481 42.8403C244.25 42.7942 243.974 42.6559 243.743 42.5177C243.513 42.3794 243.282 42.1489 243.144 41.8723C243.052 41.5958 243.098 41.227 243.282 41.0427C243.236 40.7661 243.052 40.4434 243.006 40.1208Z" fill="#263238"/>
<path d="M275.825 58.0512C275.779 58.1434 274.995 59.5723 274.995 59.5723C274.995 59.5723 275.594 57.2676 275.64 57.1754C275.825 56.4379 275.364 56.484 275.225 56.7606C275.087 57.0372 274.211 59.3418 274.211 59.3418C274.995 56.3458 274.764 56.0692 274.534 56.0231C274.303 55.977 273.612 58.6965 273.612 58.6965C273.612 58.6965 273.382 58.2356 272.875 57.9129C272.137 57.4059 270.939 57.9129 270.893 58.2356C270.846 58.5582 271.261 58.6504 271.261 58.6504C272.183 58.0512 273.105 58.7887 273.013 59.6184C272.921 60.4942 271.814 60.3559 271.676 59.7567C271.4 58.42 270.893 58.8348 270.893 58.8348L271.354 61.8309L270.846 63.3059L268.173 70.5887L263.011 65.2418C263.011 65.2418 260.245 71.3262 260.199 71.5106C260.153 71.6488 262.78 74.3684 264.486 76.166C265.407 77.134 266.698 77.641 268.035 77.641C270.247 77.5949 272.183 76.0738 272.69 73.9074L274.718 63.4442L275.686 60.0332C275.686 60.0332 276.009 58.6504 276.101 58.3278C276.286 57.9129 276.009 57.7747 275.825 58.0512Z" fill="#B78876"/>
<path d="M230.099 78.5165C231.621 78.7931 233.418 77.6869 234.34 76.4423L238.166 71.372L233.695 67.3619L229.639 72.3861L214.474 71.6025L210.878 69.5744C210.648 69.4361 210.371 69.39 210.049 69.4361L205.117 70.8189L209.726 72.2478L217.792 75.29L230.099 78.5165Z" fill="#B78876"/>
<path d="M264.439 152.773L265.085 155.447C265.085 155.447 269.464 161.116 270.8 160.84C271.676 160.655 270.616 159.18 268.957 154.894L268.588 153.096L264.439 152.773Z" fill="#323232"/>
<path d="M270.985 159.964C270.985 159.964 270.985 160.01 270.939 160.056C270.893 160.102 270.847 160.194 270.754 160.241C270.662 160.287 270.524 160.333 270.386 160.333C270.247 160.333 270.063 160.241 269.879 160.148C269.279 159.687 268.496 158.95 267.666 158.12C266.836 157.291 266.191 156.461 265.73 155.816C265.5 155.493 265.315 155.262 265.177 155.078C265.131 154.986 265.085 154.94 265.039 154.894C264.993 154.848 264.993 154.802 264.993 154.802C264.993 154.802 264.993 154.802 265.039 154.848C265.085 154.894 265.131 154.986 265.177 155.032C265.361 155.262 265.546 155.493 265.73 155.769C266.191 156.369 266.882 157.198 267.712 158.028C268.542 158.858 269.279 159.595 269.879 160.102C270.201 160.333 270.524 160.333 270.708 160.241C270.939 160.102 270.939 159.964 270.985 159.964Z" fill="#263238"/>
<path d="M270.34 158.166C270.34 158.166 270.201 158.166 269.971 158.166C269.74 158.212 269.464 158.305 269.187 158.443C268.911 158.627 268.68 158.858 268.588 159.042C268.496 159.227 268.45 159.365 268.45 159.365C268.45 159.365 268.45 159.226 268.542 158.996C268.634 158.812 268.865 158.535 269.141 158.351C269.418 158.166 269.74 158.074 269.971 158.074C270.201 158.074 270.34 158.12 270.34 158.166Z" fill="#263238"/>
<path d="M266.237 156.83C266.237 156.83 266.283 156.645 266.329 156.323C266.375 156 266.329 155.585 266.099 155.17C265.868 154.755 265.546 154.479 265.269 154.341C264.992 154.202 264.808 154.202 264.808 154.156C264.808 154.156 264.854 154.156 264.946 154.156C265.039 154.156 265.177 154.202 265.315 154.248C265.592 154.387 265.96 154.663 266.191 155.124C266.421 155.539 266.467 156.046 266.375 156.323C266.329 156.461 266.329 156.599 266.283 156.691C266.237 156.784 266.237 156.83 266.237 156.83Z" fill="#263238"/>
<path d="M264.716 153.188C264.762 153.188 264.854 153.557 264.946 154.018C265.038 154.479 265.131 154.848 265.085 154.894C265.038 154.894 264.946 154.525 264.854 154.064C264.808 153.603 264.716 153.234 264.716 153.188Z" fill="#263238"/>
<path d="M269.003 155.216C269.003 155.262 268.772 155.216 268.449 155.309C268.173 155.355 267.942 155.493 267.942 155.447C267.942 155.447 268.127 155.262 268.449 155.216C268.772 155.17 269.003 155.216 269.003 155.216Z" fill="#263238"/>
<path d="M269.095 155.677C269.095 155.723 268.865 155.677 268.634 155.723C268.404 155.769 268.219 155.908 268.219 155.862C268.219 155.862 268.358 155.677 268.634 155.631C268.865 155.585 269.095 155.677 269.095 155.677Z" fill="#263238"/>
<path d="M269.418 156.23C269.418 156.277 269.187 156.184 268.957 156.23C268.68 156.277 268.542 156.415 268.542 156.415C268.542 156.415 268.68 156.184 268.957 156.138C269.233 156.138 269.464 156.23 269.418 156.23Z" fill="#263238"/>
<path d="M268.68 155.032C268.68 155.032 268.634 155.032 268.542 155.032C268.449 155.032 268.311 154.986 268.173 154.94C268.035 154.894 267.804 154.801 267.62 154.709C267.528 154.663 267.435 154.571 267.343 154.525C267.251 154.433 267.113 154.341 267.113 154.202C267.113 154.018 267.297 153.972 267.435 153.972C267.574 154.018 267.666 154.11 267.758 154.156C267.896 154.294 268.035 154.479 268.173 154.571C268.265 154.709 268.357 154.801 268.403 154.894C268.45 154.986 268.496 155.032 268.496 155.032C268.496 155.032 268.357 154.894 268.127 154.617C268.035 154.479 267.896 154.341 267.712 154.202C267.62 154.11 267.528 154.064 267.435 154.018C267.343 153.972 267.205 154.064 267.205 154.156C267.205 154.248 267.297 154.341 267.389 154.433C267.482 154.479 267.574 154.571 267.666 154.617C267.85 154.709 268.035 154.801 268.173 154.848C268.496 154.986 268.726 155.032 268.68 155.032Z" fill="#263238"/>
<path d="M268.496 154.986C268.496 154.986 268.496 154.94 268.496 154.848C268.496 154.755 268.496 154.617 268.542 154.479C268.542 154.341 268.588 154.156 268.68 153.972C268.726 153.88 268.772 153.787 268.864 153.695C268.957 153.603 269.049 153.511 269.233 153.603C269.371 153.695 269.371 153.834 269.371 153.972C269.371 154.11 269.325 154.202 269.279 154.294C269.187 154.479 269.095 154.617 268.957 154.755C268.864 154.848 268.772 154.94 268.68 154.986C268.542 154.94 268.496 154.986 268.496 154.986C268.496 154.986 268.634 154.848 268.864 154.663C268.957 154.571 269.049 154.387 269.141 154.202C269.187 154.11 269.233 154.018 269.233 153.926C269.233 153.834 269.233 153.695 269.141 153.649C269.049 153.603 268.957 153.649 268.91 153.741C268.864 153.834 268.772 153.926 268.726 154.018C268.634 154.202 268.588 154.387 268.588 154.525C268.496 154.802 268.496 154.986 268.496 154.986Z" fill="#263238"/>
<g opacity="0.4">
<path d="M265.085 155.401L264.762 154.11C264.762 154.11 265.822 154.294 266.099 155.124C266.375 155.908 266.329 156.507 266.329 156.507L268.634 158.996C268.634 158.996 269.233 157.844 270.293 158.12C270.293 158.12 271.123 159.964 271.077 160.425C271.031 160.932 270.524 160.84 270.34 160.748C270.247 160.701 269.233 160.148 268.265 159.088C267.021 157.844 265.684 156.184 265.085 155.401Z" fill="black"/>
</g>
<path d="M242.775 154.11V150.561L249.413 150.469L249.505 155.677L249.09 155.723C247.247 155.862 239.733 156.23 238.489 155.862C237.106 155.447 242.775 154.11 242.775 154.11Z" fill="#323232"/>
<g opacity="0.4">
<path d="M247.062 155.631C247.154 155.078 247.431 154.571 247.892 154.202C248.353 153.834 248.86 153.649 249.459 153.695L249.505 155.539L247.062 155.631Z" fill="black"/>
</g>
<g opacity="0.4">
<path d="M240.01 154.848C240.01 154.848 238.028 155.447 238.304 155.769C238.535 156.092 246.14 156 249.505 155.677V155.539L240.655 155.723C240.609 155.723 240.425 154.848 240.01 154.848Z" fill="black"/>
</g>
<path d="M249.597 155.493C249.597 155.493 249.551 155.493 249.505 155.493C249.413 155.493 249.321 155.493 249.183 155.539C248.86 155.539 248.445 155.585 247.984 155.585C246.97 155.631 245.541 155.677 243.974 155.723C242.407 155.723 240.978 155.723 239.964 155.723C239.503 155.723 239.088 155.677 238.765 155.677C238.627 155.677 238.535 155.677 238.443 155.677C238.351 155.677 238.351 155.677 238.351 155.677C238.351 155.677 238.397 155.677 238.443 155.677C238.535 155.677 238.627 155.677 238.765 155.677C239.088 155.677 239.503 155.677 239.964 155.677C240.978 155.677 242.407 155.677 243.974 155.677C245.541 155.677 246.924 155.631 247.984 155.585C248.445 155.585 248.86 155.539 249.183 155.539C249.321 155.539 249.413 155.539 249.505 155.539C249.551 155.493 249.597 155.493 249.597 155.493Z" fill="#263238"/>
<path d="M240.609 155.816C240.563 155.816 240.563 155.539 240.379 155.262C240.194 154.986 239.964 154.848 239.964 154.802C239.964 154.802 240.24 154.894 240.471 155.216C240.655 155.493 240.655 155.816 240.609 155.816Z" fill="#263238"/>
<path d="M242.591 154.802C242.591 154.802 242.499 154.709 242.36 154.571C242.268 154.433 242.176 154.294 242.222 154.294C242.222 154.294 242.314 154.387 242.453 154.525C242.545 154.663 242.591 154.755 242.591 154.802Z" fill="#263238"/>
<path d="M243.098 154.479C243.098 154.479 242.96 154.433 242.867 154.341C242.729 154.248 242.683 154.156 242.683 154.11C242.683 154.11 242.821 154.156 242.914 154.248C243.052 154.387 243.098 154.479 243.098 154.479Z" fill="#263238"/>
<path d="M243.421 153.88C243.421 153.88 243.282 153.926 243.052 153.926C242.867 153.926 242.683 153.926 242.683 153.88C242.683 153.88 242.821 153.834 243.052 153.834C243.282 153.834 243.421 153.834 243.421 153.88Z" fill="#263238"/>
<path d="M243.559 153.419C243.559 153.419 243.421 153.511 243.19 153.557C242.96 153.557 242.775 153.511 242.775 153.511C242.775 153.465 242.96 153.511 243.19 153.465C243.375 153.419 243.559 153.373 243.559 153.419Z" fill="#263238"/>
<path d="M242.314 154.202C242.314 154.202 242.13 154.248 241.9 154.202C241.761 154.202 241.623 154.156 241.439 154.11C241.346 154.064 241.254 154.064 241.162 154.018C241.116 153.972 241.07 153.972 241.07 153.88C241.07 153.834 241.07 153.741 241.116 153.695C241.531 153.465 241.946 153.695 242.084 153.926C242.176 154.018 242.222 154.156 242.222 154.202C242.222 154.294 242.222 154.294 242.222 154.341C242.222 154.341 242.176 154.156 242.038 153.972C241.946 153.88 241.807 153.787 241.669 153.741C241.531 153.695 241.3 153.695 241.162 153.787C241.116 153.834 241.116 153.926 241.208 153.972C241.3 154.018 241.392 154.064 241.439 154.064C241.623 154.11 241.761 154.156 241.9 154.156C242.176 154.202 242.314 154.202 242.314 154.202Z" fill="#263238"/>
<path d="M242.223 154.248C242.223 154.248 242.13 154.156 242.176 153.972C242.176 153.88 242.223 153.787 242.269 153.649C242.361 153.557 242.453 153.419 242.637 153.419C242.73 153.419 242.776 153.557 242.776 153.603C242.776 153.695 242.73 153.741 242.684 153.787C242.637 153.88 242.545 153.972 242.499 154.064C242.361 154.202 242.269 154.248 242.223 154.248C242.269 154.248 242.361 154.156 242.453 154.018C242.499 153.972 242.591 153.88 242.637 153.741C242.684 153.649 242.73 153.465 242.637 153.465C242.545 153.465 242.407 153.557 242.361 153.649C242.315 153.741 242.269 153.834 242.223 153.926C242.176 154.11 242.223 154.248 242.223 154.248Z" fill="#263238"/>
<path d="M249.413 153.695C249.413 153.695 249.228 153.695 248.906 153.741C248.629 153.787 248.214 153.926 247.846 154.202C247.477 154.479 247.292 154.894 247.2 155.17C247.108 155.447 247.108 155.631 247.062 155.631C247.062 155.631 247.062 155.585 247.062 155.493C247.062 155.401 247.108 155.262 247.108 155.124C247.2 154.848 247.385 154.433 247.753 154.11C248.122 153.787 248.537 153.695 248.86 153.649C248.998 153.649 249.136 153.649 249.228 153.649C249.367 153.695 249.413 153.695 249.413 153.695Z" fill="#263238"/>
<path d="M248.722 150.93C248.722 150.93 248.768 151.529 248.814 152.312C248.814 153.05 248.814 153.695 248.814 153.695C248.814 153.695 248.768 153.096 248.722 152.312C248.675 151.529 248.675 150.93 248.722 150.93Z" fill="#263238"/>
<path d="M246.232 154.986C246.232 154.986 245.817 155.078 245.264 155.078C244.711 155.078 244.296 155.032 244.296 155.032C244.296 154.986 244.711 155.032 245.264 155.032C245.817 155.032 246.232 154.986 246.232 154.986Z" fill="#263238"/>
<path d="M247.523 154.986C247.523 154.986 247.477 155.078 247.431 155.17C247.385 155.262 247.385 155.355 247.339 155.355C247.339 155.355 247.293 155.262 247.339 155.124C247.431 155.032 247.523 154.986 247.523 154.986Z" fill="#263238"/>
<path d="M248.03 154.387C248.03 154.387 247.984 154.479 247.938 154.525C247.892 154.617 247.8 154.663 247.8 154.617C247.8 154.617 247.846 154.525 247.892 154.479C247.938 154.387 247.984 154.341 248.03 154.387Z" fill="#263238"/>
<path d="M248.722 154.064C248.722 154.064 248.63 154.064 248.537 154.11C248.445 154.156 248.353 154.202 248.353 154.202C248.353 154.202 248.399 154.11 248.491 154.064C248.63 154.018 248.722 154.064 248.722 154.064Z" fill="#263238"/>
<path d="M249.229 153.926C249.229 153.926 249.183 153.972 249.137 154.018C249.091 154.018 249.044 154.064 249.044 154.018C249.044 154.018 249.091 153.972 249.137 153.926C249.183 153.926 249.229 153.926 249.229 153.926Z" fill="#263238"/>
<path d="M271.538 153.234L258.355 83.4948L240.056 86.2604L241.346 152.589L251.717 152.773L250.012 94.9721L261.674 153.234H271.538Z" fill="#455A64"/>
<path d="M260.383 90.1782L239.457 89.3946L240.056 70.3118L237.29 73.4462L231.713 68.6064L237.843 60.2173C239.457 58.0509 241.853 56.622 244.527 56.2994C245.311 56.2072 245.91 56.1611 246.278 56.115C248.537 56.8064 250.842 56.8064 253.1 56.115C254.16 56.1611 255.082 56.3455 255.912 56.6681C257.664 57.3134 259.139 58.2814 260.429 59.572L267.297 68.8368L261.443 73.9071L258.078 70.9571L260.383 90.1782Z" fill="#263238"/>
<path d="M240.378 63.0751C240.424 63.0751 240.378 66.2556 240.24 70.1736C240.102 74.0915 239.917 77.272 239.871 77.272C239.825 77.272 239.871 74.0915 240.01 70.1736C240.102 66.2556 240.286 63.0751 240.378 63.0751Z" fill="#455A64"/>
<path d="M257.341 64.3197C257.387 64.3197 257.618 66.1635 257.848 68.422C258.078 70.6806 258.171 72.5244 258.125 72.5705C258.078 72.5705 257.848 70.7267 257.618 68.4681C257.433 66.1634 257.295 64.3197 257.341 64.3197Z" fill="#455A64"/>
<path d="M247.108 56.2533C247.154 56.2994 246.97 56.4838 246.739 56.6682C246.509 56.8525 246.278 56.9447 246.232 56.8986C246.186 56.8525 246.37 56.6682 246.601 56.4838C246.831 56.2994 247.062 56.2072 247.108 56.2533Z" fill="#455A64"/>
<path d="M248.076 56.4378C248.122 56.4839 248.076 56.6683 248.03 56.8987C247.984 57.1292 247.892 57.3136 247.845 57.3136C247.799 57.3136 247.753 57.0831 247.799 56.8526C247.845 56.5761 248.03 56.4378 248.076 56.4378Z" fill="#455A64"/>
<path d="M249.136 56.5759C249.182 56.5759 249.274 56.7603 249.274 56.9908C249.274 57.2212 249.228 57.4056 249.182 57.4056C249.136 57.4056 249.044 57.2212 249.044 56.9908C249.044 56.7603 249.09 56.5759 249.136 56.5759Z" fill="#455A64"/>
<path d="M250.565 56.4838C250.611 56.4838 250.703 56.6681 250.749 56.8986C250.796 57.1291 250.842 57.3135 250.796 57.3595C250.749 57.4056 250.565 57.2213 250.519 56.9447C250.427 56.7142 250.473 56.4838 250.565 56.4838Z" fill="#455A64"/>
<path d="M252.086 56.2995C252.132 56.2995 252.271 56.4378 252.363 56.5761C252.501 56.7604 252.593 56.8987 252.547 56.9448C252.501 56.9909 252.317 56.9448 252.178 56.7143C252.04 56.53 252.04 56.3456 252.086 56.2995Z" fill="#455A64"/>
<path d="M252.916 56.0689C252.962 56.0228 253.1 56.0689 253.285 56.1611C253.423 56.2533 253.561 56.3916 253.515 56.4377C253.469 56.4838 253.331 56.4377 253.147 56.3455C252.962 56.2533 252.87 56.115 252.916 56.0689Z" fill="#455A64"/>
<path d="M257.802 68.8831C257.802 68.9292 253.884 69.0214 249.044 69.0214C244.204 69.0214 240.286 68.9753 240.286 68.9292C240.286 68.8831 244.204 68.7909 249.044 68.7909C253.884 68.7448 257.802 68.7909 257.802 68.8831Z" fill="#FAFAFA"/>
<path d="M257.94 70.1736C257.94 70.2197 254.022 70.3118 249.183 70.3118C244.343 70.3118 240.425 70.2658 240.425 70.2197C240.425 70.1736 244.343 70.0814 249.183 70.0814C254.022 70.0353 257.94 70.0814 257.94 70.1736Z" fill="#FAFAFA"/>
<path d="M258.079 71.4642C258.079 71.5103 254.068 71.6025 249.09 71.6486C244.112 71.6947 240.102 71.6947 240.102 71.6025C240.102 71.5564 244.112 71.4642 249.09 71.4181C254.068 71.372 258.079 71.372 258.079 71.4642Z" fill="#FAFAFA"/>
<path d="M263.794 63.8588C263.794 63.9049 263.517 64.1814 263.056 64.6885C262.549 65.1494 261.858 65.7947 261.074 66.4861C260.291 67.1775 259.507 67.7306 258.954 68.1455C258.401 68.5603 258.032 68.7908 258.032 68.7447C258.032 68.6986 258.355 68.422 258.862 68.0072C259.461 67.5002 260.153 66.947 260.936 66.3017C261.674 65.6564 262.365 65.0572 262.964 64.5502C263.425 64.1353 263.748 63.8588 263.794 63.8588Z" fill="#FAFAFA"/>
<path d="M264.854 65.0111C264.854 65.0572 264.531 65.3799 263.978 65.8869C263.425 66.3939 262.595 67.0853 261.674 67.8228C260.752 68.5603 259.876 69.1595 259.231 69.5744C258.585 69.9892 258.17 70.2197 258.17 70.2197C258.17 70.1736 258.539 69.897 259.138 69.4361C259.738 68.9752 260.613 68.3299 261.535 67.6385C262.457 66.947 263.287 66.2556 263.886 65.7947C264.439 65.2877 264.808 65.0111 264.854 65.0111Z" fill="#FAFAFA"/>
<path d="M265.407 66.1173C265.453 66.1634 264.07 67.454 262.273 68.9751C260.521 70.4962 259.046 71.6946 259 71.6486C258.954 71.6025 260.337 70.3118 262.135 68.7907C263.886 67.2697 265.361 66.0712 265.407 66.1173Z" fill="#FAFAFA"/>
<path d="M240.102 69.2517C240.102 69.2978 239.733 69.1134 239.226 68.6986C238.719 68.3298 238.074 67.6845 237.383 66.9931C236.691 66.3017 236.092 65.6103 235.677 65.1494C235.262 64.6885 234.986 64.3658 235.032 64.3197C235.078 64.3197 235.355 64.5502 235.815 65.0111C236.276 65.472 236.876 66.1174 237.567 66.8088C238.258 67.5002 238.858 68.1455 239.365 68.5603C239.826 69.0213 240.148 69.2517 240.102 69.2517Z" fill="#FAFAFA"/>
<path d="M239.503 70.865C239.503 70.9111 239.134 70.6345 238.581 70.1736C238.028 69.7127 237.336 69.1134 236.599 68.3299C235.861 67.5924 235.17 66.901 234.755 66.3478C234.294 65.8408 234.063 65.472 234.063 65.472C234.11 65.472 234.386 65.7486 234.893 66.2556C235.354 66.7627 236.046 67.4541 236.783 68.1916C237.521 68.9291 238.212 69.5744 238.719 70.0814C239.226 70.5423 239.549 70.8189 239.503 70.865Z" fill="#FAFAFA"/>
<path d="M238.857 71.9712C238.811 72.0173 238.535 71.6947 238.028 71.1877C237.521 70.6806 236.829 70.0353 236.046 69.2978C235.262 68.5603 234.525 67.915 234.018 67.4541C233.511 66.9931 233.142 66.7166 233.188 66.6705C233.188 66.6244 233.557 66.9009 234.11 67.3158C234.663 67.7306 235.4 68.3759 236.184 69.1134C236.968 69.8509 237.659 70.5423 238.12 71.0955C238.627 71.6025 238.904 71.9712 238.857 71.9712Z" fill="#FAFAFA"/>
<path d="M260.337 89.2563C260.337 89.3024 255.681 89.2563 249.966 89.118C244.25 88.9797 239.595 88.7954 239.595 88.7493C239.595 88.7032 244.25 88.7493 249.966 88.8876C255.681 89.0258 260.337 89.2102 260.337 89.2563Z" fill="#455A64"/>
<path d="M307.03 129.128C308.228 129.681 309.104 130.833 309.565 132.078C309.98 133.322 310.026 134.705 309.842 136.042C309.519 138.577 307.998 141.158 306.385 143.186C304.264 141.25 303.85 137.978 303.711 136.272C303.527 133.599 304.817 128.667 307.03 129.128Z" fill="#82B378"/>
<path d="M308.827 147.427C308.505 145.952 309.15 144.385 310.256 143.417C311.409 142.449 312.93 142.08 314.451 142.218C315.142 142.264 315.88 142.495 316.248 143.048C316.617 143.601 316.571 144.338 316.248 144.892C315.926 145.445 315.419 145.86 314.866 146.182C312.93 147.381 310.902 148.118 308.827 147.427Z" fill="#82B378"/>
<path d="M305.877 155.263C305.877 155.263 305.877 155.078 305.97 154.756C306.062 154.387 306.154 153.926 306.246 153.327C306.523 152.128 306.845 150.423 307.813 148.81C308.735 147.196 310.072 145.998 311.132 145.399C311.685 145.122 312.146 144.938 312.469 144.845C312.653 144.799 312.745 144.753 312.838 144.753C312.93 144.753 312.976 144.753 312.976 144.753C312.976 144.799 312.238 144.938 311.178 145.537C310.118 146.136 308.874 147.335 307.952 148.902C307.03 150.515 306.661 152.174 306.384 153.373C306.246 153.972 306.108 154.433 306.016 154.756C305.97 155.078 305.924 155.263 305.877 155.263Z" fill="#263238"/>
<path d="M306.385 132.953C306.385 132.953 306.385 133.046 306.385 133.184C306.385 133.368 306.385 133.553 306.431 133.829C306.431 134.382 306.477 135.212 306.477 136.272C306.523 138.346 306.523 141.158 306.431 144.292C306.339 147.427 306.246 150.285 306.108 152.313C306.062 153.327 305.97 154.156 305.924 154.756C305.878 155.032 305.878 155.263 305.878 155.401C305.878 155.539 305.832 155.631 305.832 155.631C305.832 155.631 305.832 155.539 305.832 155.401C305.832 155.217 305.832 155.032 305.832 154.756C305.878 154.156 305.878 153.327 305.924 152.313C306.016 150.238 306.108 147.427 306.2 144.292C306.292 141.158 306.292 138.3 306.292 136.272C306.292 135.258 306.292 134.428 306.292 133.829C306.292 133.553 306.292 133.322 306.292 133.184C306.385 133.046 306.385 132.953 306.385 132.953Z" fill="#263238"/>
<path d="M305.048 148.948C304.633 145.86 302.559 143.002 299.793 141.573C299.056 141.204 298.134 140.974 297.535 141.481C296.935 141.988 297.028 142.956 297.304 143.739C298.456 146.874 301.637 149.132 305.002 149.132" fill="#82B378"/>
<path d="M300.07 144.016C300.07 144.016 300.254 144.062 300.531 144.246C300.669 144.338 300.853 144.385 301.038 144.523C301.222 144.661 301.453 144.753 301.683 144.938C301.914 145.122 302.19 145.306 302.421 145.537C302.697 145.767 302.928 145.998 303.204 146.274C303.711 146.828 304.264 147.519 304.679 148.256C305.094 149.04 305.417 149.824 305.647 150.561C305.739 150.93 305.832 151.299 305.878 151.621C305.924 151.944 305.97 152.267 305.97 152.543C306.016 152.82 305.97 153.096 305.97 153.327C305.97 153.557 305.97 153.742 305.924 153.926C305.878 154.249 305.878 154.433 305.878 154.433C305.832 154.433 305.924 153.742 305.832 152.589C305.785 152.313 305.785 151.99 305.693 151.667C305.647 151.345 305.555 150.976 305.463 150.607C305.232 149.87 304.956 149.132 304.495 148.349C304.08 147.611 303.573 146.92 303.066 146.367C302.789 146.09 302.559 145.86 302.282 145.629C302.052 145.399 301.775 145.214 301.545 145.03C300.715 144.338 300.07 144.062 300.07 144.016Z" fill="#263238"/>
<path d="M230.652 42.0567C230.099 41.5497 228.762 41.5497 228.163 42.4254C227.61 41.5036 226.227 41.5036 225.674 42.0106C224.937 42.6559 224.845 43.7621 225.352 44.5457C226.043 45.652 227.38 46.1129 228.163 47.0809C228.993 46.1129 230.237 45.6981 230.929 44.5918C231.436 43.8082 231.344 42.702 230.652 42.0567Z" fill="#323232"/>
<path d="M237.198 51.7825C237.198 51.7825 237.106 51.7825 236.921 51.7364C236.691 51.6903 236.414 51.6442 235.999 51.5981C235.17 51.4598 234.017 51.2754 232.542 51.045H232.588C231.528 51.7825 230.099 52.3817 228.394 52.4739C226.688 52.6122 224.752 52.1512 223.047 50.9528C221.388 49.8004 220.005 47.8645 219.636 45.5598C219.221 43.3012 219.82 40.72 221.434 38.7841C223.093 36.802 225.582 35.7419 227.933 35.7419C230.284 35.7419 232.496 36.802 233.925 38.277C235.4 39.752 236.091 41.688 236.23 43.3473C236.368 45.0528 235.953 46.5739 235.446 47.6801V47.634C235.999 48.9247 236.46 49.9387 236.783 50.6762C236.921 50.9989 237.059 51.2754 237.106 51.4598C237.152 51.6903 237.198 51.7825 237.198 51.7825C237.198 51.7825 237.198 51.7364 237.152 51.6903C237.106 51.6442 237.106 51.552 237.059 51.5059C236.967 51.3215 236.829 51.045 236.691 50.7223C236.368 50.0309 235.907 49.0168 235.308 47.7723V47.7262V47.6801C235.815 46.5739 236.23 45.0989 236.045 43.4395C235.861 41.7801 235.17 39.9364 233.741 38.5075C232.358 37.0786 230.238 36.0184 227.933 36.0184C225.628 35.9723 223.231 37.0325 221.618 38.9684C220.051 40.8583 219.452 43.3473 219.867 45.5598C220.235 47.7723 221.572 49.7083 223.185 50.8145C224.799 51.9668 226.734 52.4278 228.394 52.3356C230.053 52.2434 231.482 51.6442 232.496 50.9528H232.542C233.971 51.2293 235.124 51.4137 235.953 51.552C236.322 51.6442 236.645 51.6903 236.875 51.7364C236.967 51.7364 237.059 51.7825 237.106 51.7825C237.152 51.7364 237.198 51.7364 237.198 51.7825Z" fill="#263238"/>
</g>
<defs>
<clipPath id="clip0_561_2133">
<rect width="318" height="169.025" fill="white" transform="translate(0 0.987305)"/>
</clipPath>
</defs>
</svg>
