<svg width="18" height="18" viewBox="0 0 18 18" fill="none" xmlns="http://www.w3.org/2000/svg">
<g clip-path="url(#clip0_317_2944)">
<path d="M1.25475 10.4527C1.36614 11.2896 1.6198 12.1012 2.00475 12.8527L2.4045 13.6252C2.7724 14.2351 3.34597 14.6936 4.02193 14.9181C4.69788 15.1426 5.43179 15.1185 6.0915 14.8499L6.20025 15.0292C6.40414 15.3678 6.7342 15.6116 7.11783 15.7069C7.50146 15.8022 7.90723 15.7412 8.24588 15.5373C8.58452 15.3334 8.82831 15.0033 8.9236 14.6197C9.01889 14.2361 8.95789 13.8303 8.754 13.4917L8.7045 13.4084L13.962 10.4617L14.1068 10.7024C14.2069 10.8719 14.3396 11.0199 14.4972 11.1379C14.6548 11.2558 14.8342 11.3414 15.0251 11.3896C15.2159 11.4379 15.4145 11.4479 15.6092 11.419C15.8039 11.3901 15.991 11.323 16.1597 11.2214C16.3283 11.1199 16.4752 10.9859 16.5918 10.8273C16.7084 10.6687 16.7925 10.4886 16.8391 10.2973C16.8857 10.106 16.894 9.90742 16.8635 9.71294C16.833 9.51845 16.7642 9.33194 16.6613 9.16416L16.494 8.88666C16.8459 8.51385 17.0953 8.05624 17.2178 7.55841C17.3131 7.18631 17.3342 6.79907 17.2799 6.4188C17.2256 6.03854 17.0969 5.67269 16.9012 5.34216L16.5 4.56816C16.0456 3.77444 15.3981 3.10834 14.6175 2.63166L11.4 0.515907C10.833 0.197735 10.1924 0.0338897 9.54229 0.0407333C8.89215 0.0475769 8.25518 0.22487 7.695 0.554907L2.541 3.26766C1.97783 3.60746 1.51429 4.08984 1.1972 4.66609C0.880098 5.24235 0.720666 5.89207 0.735 6.54966C0.73575 6.57741 1.25475 10.4527 1.25475 10.4527ZM15.5925 6.07041C15.7949 6.40653 15.8563 6.80907 15.7631 7.19024C15.67 7.57141 15.4299 7.90029 15.0953 8.10516L5.72775 13.3552C5.56069 13.4562 5.37527 13.5233 5.18219 13.5523C4.98911 13.5814 4.79218 13.572 4.60275 13.5247C4.23537 13.437 3.91627 13.2104 3.7125 12.8924L3.31275 12.1199C3.23894 11.9938 3.17548 11.8618 3.123 11.7254L4.37025 11.0152L4.74525 11.6212C4.79364 11.7112 4.85992 11.7904 4.94002 11.8538C5.02012 11.9173 5.11234 11.9637 5.21104 11.9903C5.30973 12.0168 5.4128 12.0229 5.51394 12.0082C5.61507 11.9935 5.71213 11.9582 5.79915 11.9046C5.88617 11.851 5.96132 11.7802 6.01998 11.6965C6.07864 11.6128 6.11959 11.5181 6.14029 11.418C6.161 11.3179 6.16103 11.2146 6.14039 11.1145C6.11974 11.0144 6.07886 10.9196 6.02025 10.8359L5.67375 10.2749L12.3998 6.44466L12.8198 7.14141C12.9236 7.30915 13.0895 7.42919 13.2813 7.47552C13.473 7.52185 13.6754 7.49074 13.8444 7.38892C14.0134 7.2871 14.1355 7.12278 14.1842 6.93157C14.2329 6.74035 14.2042 6.53766 14.1045 6.36741L13.704 5.69991L14.979 4.97391C15.054 5.07816 15.129 5.18616 15.1935 5.29716L15.5925 6.07041ZM3.27675 4.57491L8.43075 1.86216C8.75967 1.66258 9.13481 1.55191 9.5194 1.54099C9.90398 1.53008 10.2848 1.6193 10.6245 1.79991L13.827 3.90741L2.73675 10.2194L2.23425 6.47691C2.23098 6.09721 2.32509 5.72301 2.5076 5.39003C2.69011 5.05705 2.95492 4.77642 3.27675 4.57491ZM18 17.2499C18 17.4488 17.921 17.6396 17.7803 17.7802C17.6397 17.9209 17.4489 17.9999 17.25 17.9999H0.75C0.551088 17.9999 0.360322 17.9209 0.21967 17.7802C0.0790176 17.6396 0 17.4488 0 17.2499C0 17.051 0.0790176 16.8602 0.21967 16.7196C0.360322 16.5789 0.551088 16.4999 0.75 16.4999H17.25C17.4489 16.4999 17.6397 16.5789 17.7803 16.7196C17.921 16.8602 18 17.051 18 17.2499Z" fill="#CCCCCC"/>
</g>
<defs>
<clipPath id="clip0_317_2944">
<rect width="18" height="18" fill="white"/>
</clipPath>
</defs>
</svg>
