<svg width="318" height="164" viewBox="0 0 318 164" fill="none" xmlns="http://www.w3.org/2000/svg">
<g clip-path="url(#clip0_505_2117)">
<path d="M24.2414 163.861C24.2414 163.861 -12.1975 124.818 18.0781 82.5468C44.9427 45.0416 76.2534 47.6124 99.2365 62.8257C109.023 69.3055 137.24 63.624 161.246 25.4614C193.992 -26.5764 307.508 4.98906 286.818 85.0471C276.797 123.797 317.306 125.205 296.663 163.931L24.2414 163.861Z" fill="#EBF3FA" fill-opacity="0.1"/>
<path d="M94.2026 88.3927C94.2026 88.3927 76.1831 62.7906 69.1376 66.1009C62.0921 69.423 94.2026 88.3927 94.2026 88.3927Z" fill="#A8D29F"/>
<path d="M93.062 81.5138C93.062 81.5138 90.3097 62.2623 85.9695 63.0136C81.6293 63.7648 93.062 81.5138 93.062 81.5138Z" fill="#A8D29F"/>
<path d="M77.8185 141.522C77.8185 141.522 79.5475 132.953 72.8196 131.873C72.8196 131.873 68.2559 131.709 65.5742 133.434C65.5742 133.434 73.2078 137.836 72.3021 139.198C71.3964 140.56 64.151 133.692 64.151 133.692C64.151 133.692 55.9645 137.273 54.1414 139.855C54.1414 139.855 63.8099 141.569 62.5866 142.672C61.3751 143.776 51.2244 142.449 51.2244 142.449C51.2244 142.449 44.6847 147.708 47.5311 151.887C50.3776 156.066 53.6239 156.043 54.659 155.315C55.6823 154.587 60.7164 148.589 61.3633 149.399C61.9985 150.22 59.7872 155.292 57.1643 156.923C57.1643 156.923 65.3977 159.694 67.8678 156.184C70.3496 152.674 69.1969 149.95 70.773 147.814C72.3491 145.678 74.1487 144.68 73.8194 146.135C73.5018 147.603 70.2084 150.678 70.1967 153.484C70.1849 156.289 69.9026 158.332 73.1137 155.843C76.3247 153.366 80.5826 147.638 79.1947 144.562C77.8185 141.522 77.8185 141.522 77.8185 141.522Z" fill="#82B378"/>
<path d="M51.1663 150.021C51.1663 150.021 70.362 138.329 77.8309 141.51C77.8309 141.51 80.3951 143.835 84.8058 144.809L85.9703 145.807C85.9703 145.807 80.5715 144.128 79.2306 144.586C79.2071 144.586 77.2311 136.592 51.1663 150.021Z" fill="#82B378"/>
<path d="M84.794 144.809C84.794 144.809 90.7456 145.572 94.1448 150.96L93.4156 151.453C93.4156 151.453 88.8519 146.464 85.1704 145.572C81.4771 144.68 84.794 144.809 84.794 144.809Z" fill="#82B378"/>
<path d="M83.6987 116.518C83.6987 116.518 97.6368 108.724 91.1323 98.1591C91.1323 98.1591 85.9335 91.6676 80.3582 90.0007C80.3582 90.0007 83.334 105.766 80.3582 106.141C77.3824 106.517 78.3116 88.3338 78.3116 88.3338C78.3116 88.3338 63.6325 81.2906 57.8691 81.8423C57.8691 81.8423 66.973 97.2318 63.9972 96.8679C61.0214 96.4922 50.8001 80.9149 50.8001 80.9149C50.8001 80.9149 35.7446 78.1329 33.3334 87.0308C30.9222 95.9288 34.8154 100.378 37.0502 100.941C39.285 101.493 53.5877 101.317 53.2231 103.172C52.8467 105.026 43.19 107.996 37.803 106.329C37.803 106.329 43.7546 120.979 51.5529 120.24C59.3629 119.5 61.7741 114.675 66.6083 114.3C71.4426 113.924 74.9712 115.227 72.56 116.53C70.1487 117.833 61.9623 116.953 58.0691 120.263C54.1641 123.573 51.0118 125.616 58.2573 127.095C65.5027 128.574 78.5116 127.647 81.111 122.083C83.6987 116.518 83.6987 116.518 83.6987 116.518Z" fill="#A8D29F"/>
<path d="M40.2141 89.8129C40.2141 89.8129 79.2407 102.42 83.6986 116.518C83.6986 116.518 83.5104 122.822 87.4154 130.053V132.835C87.4154 132.835 83.3222 123.374 81.0992 122.083C81.0992 122.083 89.8266 109.839 40.2141 89.8129Z" fill="#82B378"/>
<path d="M87.4151 130.053C87.4151 130.053 93.4373 139.174 90.0027 150.279L88.4501 149.868C88.4501 149.868 89.9557 137.636 86.8035 131.485C83.6512 125.334 87.4151 130.053 87.4151 130.053Z" fill="#82B378"/>
<path d="M97.8607 51.3453L77.0065 158.942C76.583 161.126 78.265 163.168 80.4998 163.168H91.4974L97.8607 51.3453Z" fill="#171766"/>
<path d="M236.488 82.1477C236.488 82.1477 227.102 76.1727 232.054 69.0825C232.054 69.0825 235.935 64.7744 239.875 63.8353C239.875 63.8353 237.182 74.6819 239.228 75.0575C241.287 75.4332 241.357 62.7554 241.357 62.7554C241.357 62.7554 251.849 58.4355 255.837 59.0577C255.837 59.0577 248.885 69.3995 250.967 69.2586C253.049 69.1178 260.777 58.6938 260.777 58.6938C260.777 58.6938 271.351 57.3556 272.68 63.6475C274.009 69.9395 271.116 72.8741 269.539 73.1676C267.963 73.4611 258.024 72.7685 258.212 74.0715C258.401 75.3745 264.999 77.8279 268.81 76.8771C268.81 76.8771 264.094 86.8315 258.695 85.998C253.296 85.1763 251.814 81.7251 248.462 81.2673C245.121 80.8213 242.604 81.5843 244.239 82.5821C245.862 83.5799 251.59 83.2981 254.166 85.7633C256.742 88.2167 258.859 89.7662 253.766 90.5057C248.662 91.2452 239.664 90.0831 238.076 86.1154C236.488 82.1477 236.488 82.1477 236.488 82.1477Z" fill="#C7DCFB"/>
<path d="M267.787 65.3026C267.787 65.3026 240.146 72.5219 236.476 82.1476C236.476 82.1476 236.358 86.5379 233.347 91.4095L233.241 93.3464C233.241 93.3464 236.464 86.937 238.064 86.1153C238.076 86.1153 232.489 77.2526 267.787 65.3026Z" fill="#C7DCFB"/>
<path d="M233.359 91.4095C233.359 91.4095 228.807 97.5136 230.748 105.367L231.842 105.144C231.842 105.144 231.289 96.5745 233.724 92.4307C236.158 88.2752 233.359 91.4095 233.359 91.4095Z" fill="#C7DCFB"/>
<path d="M211.224 56.2286C211.224 56.2286 196.816 53.0709 199.721 41.9895C199.721 41.9895 202.579 34.8641 207.06 31.8942C207.06 31.8942 208.66 46.6263 211.389 46.1567C214.118 45.6872 208.413 29.8751 208.413 29.8751C208.413 29.8751 219.493 19.7211 224.739 18.6647C224.739 18.6647 220.822 34.7115 223.351 33.5846C225.88 32.4577 230.738 15.953 230.738 15.953C230.738 15.953 243.299 9.47324 247.828 16.6926C252.356 23.9119 250.098 28.8891 248.275 29.9808C246.452 31.0725 233.749 34.735 234.584 36.2727C235.407 37.8105 244.746 37.8575 249.063 34.9345C249.063 34.9345 247.746 49.4788 240.641 50.9109C233.537 52.3431 230.114 48.7275 225.739 49.6901C221.363 50.6527 218.599 52.7422 221.081 53.2469C223.563 53.7517 230.561 50.7935 234.901 52.6717C239.242 54.5499 242.582 55.5125 236.572 58.7641C230.561 62.0158 218.811 64.6687 215.023 60.4545C211.224 56.2286 211.224 56.2286 211.224 56.2286Z" fill="#DFEBFD"/>
<path d="M242.5 20.989C242.5 20.989 211.39 42.5765 211.225 56.2286C211.225 56.2286 213.083 61.7575 211.578 69.1882L212.33 71.6533C212.33 71.6533 213.401 62.2036 215.024 60.4545C215.024 60.4428 204.015 51.9557 242.5 20.989Z" fill="#DFEBFD"/>
<path d="M211.577 69.1881C211.577 69.1881 208.707 78.8608 214.718 87.7588L215.976 86.9723C215.976 86.9723 211.365 76.56 212.495 70.2798C213.636 64.0113 211.577 69.1881 211.577 69.1881Z" fill="#DFEBFD"/>
<path d="M98.108 50.9111L84.2875 156.56C83.8288 160.058 86.5576 163.169 90.098 163.169H110.376L98.9431 50.5355L98.108 50.9111Z" fill="#78ACEA"/>
<path d="M98.1074 50.9109L91.9206 155.879C91.6853 159.835 94.8376 163.157 98.8014 163.157H129.042L98.1074 50.9109Z" fill="#699DEE"/>
<path d="M97.884 51.7679L100.895 155.879C100.66 159.835 103.812 163.157 107.776 163.157H138.016L97.884 51.7679Z" fill="#5288D8"/>
<path d="M242.675 163.168H123.431C120.455 163.168 117.903 161.044 117.362 158.121L99.2247 59.0929C98.4014 54.597 101.859 50.4532 106.447 50.4532H224.291C227.267 50.4532 229.819 52.5779 230.36 55.5008L248.756 155.914C249.427 159.682 246.521 163.168 242.675 163.168Z" fill="#D7E9FF"/>
<path d="M101.578 71.9469H233.431L230.055 53.2471C229.761 51.6271 228.35 50.4415 226.691 50.4415H98.9784C98.2845 50.4415 97.7552 51.0754 97.8845 51.7563L101.578 71.9469Z" fill="#171766"/>
<path d="M104.671 44.8187C101.518 44.8187 98.9543 47.3777 98.9543 50.5237H100.048C100.048 47.9764 102.118 45.9104 104.671 45.9104C107.223 45.9104 109.293 47.9764 109.293 50.5237C109.293 51.0285 109.211 51.5215 109.058 51.9793C108.599 53.3292 107.541 54.4092 106.188 54.8788C105.788 55.0196 105.376 55.1018 104.941 55.1253V56.217C105.447 56.1935 105.941 56.1113 106.4 55.9587C108.258 55.3718 109.705 53.8692 110.199 51.9793C110.317 51.5097 110.387 51.0285 110.387 50.5237C110.387 47.3777 107.823 44.8187 104.671 44.8187Z" fill="#78ACEA"/>
<path d="M106.435 55.6417C106.435 55.7591 106.423 55.8648 106.388 55.9704C106.247 56.4987 105.765 56.8743 105.2 56.8743C104.518 56.8743 103.965 56.3226 103.965 55.6417C103.965 54.9609 104.518 54.4092 105.2 54.4092C105.6 54.4092 105.953 54.597 106.176 54.8905C106.341 55.09 106.435 55.3483 106.435 55.6417Z" fill="#78ACEA"/>
<path d="M125.161 44.8186C122.009 44.8186 119.445 47.3776 119.445 50.5236H120.539C120.539 47.9763 122.609 45.9103 125.161 45.9103C127.714 45.9103 129.784 47.9763 129.784 50.5236C129.784 51.0284 129.701 51.5214 129.548 51.9792C129.09 53.3292 128.031 54.4091 126.679 54.8787C126.279 55.0196 125.867 55.1017 125.432 55.1252V56.2169C125.938 56.1934 126.432 56.1113 126.89 55.9587C128.749 55.3717 130.195 53.8692 130.689 51.9792C130.807 51.5097 130.878 51.0284 130.878 50.5236C130.878 47.3776 128.313 44.8186 125.161 44.8186Z" fill="#78ACEA"/>
<path d="M126.925 55.6416C126.925 55.759 126.913 55.8647 126.878 55.9703C126.737 56.4985 126.255 56.8742 125.69 56.8742C125.008 56.8742 124.455 56.3225 124.455 55.6416C124.455 54.9608 125.008 54.4091 125.69 54.4091C126.09 54.4091 126.443 54.5969 126.666 54.8903C126.831 55.0899 126.925 55.3482 126.925 55.6416Z" fill="#78ACEA"/>
<path d="M145.662 44.8186C142.51 44.8186 139.946 47.3776 139.946 50.5236H141.04C141.04 47.9763 143.11 45.9103 145.662 45.9103C148.215 45.9103 150.285 47.9763 150.285 50.5236C150.285 51.0284 150.202 51.5214 150.049 51.9792C149.591 53.3292 148.532 54.4091 147.179 54.8787C146.78 55.0196 146.368 55.1017 145.933 55.1252V56.2169C146.438 56.1934 146.932 56.1113 147.391 55.9587C149.25 55.3717 150.696 53.8692 151.19 51.9792C151.308 51.5097 151.379 51.0284 151.379 50.5236C151.379 47.3776 148.814 44.8186 145.662 44.8186Z" fill="#78ACEA"/>
<path d="M147.426 55.6416C147.426 55.759 147.414 55.8647 147.379 55.9703C147.238 56.4985 146.756 56.8742 146.191 56.8742C145.509 56.8742 144.956 56.3225 144.956 55.6416C144.956 54.9608 145.509 54.4091 146.191 54.4091C146.591 54.4091 146.944 54.5969 147.167 54.8903C147.332 55.0899 147.426 55.3482 147.426 55.6416Z" fill="#78ACEA"/>
<path d="M166.151 44.8187C162.999 44.8187 160.435 47.3777 160.435 50.5237H161.528C161.528 47.9764 163.599 45.9104 166.151 45.9104C168.703 45.9104 170.773 47.9764 170.773 50.5237C170.773 51.0285 170.691 51.5215 170.538 51.9793C170.079 53.3292 169.021 54.4092 167.668 54.8788C167.268 55.0196 166.857 55.1018 166.421 55.1253V56.217C166.927 56.1935 167.421 56.1113 167.88 55.9587C169.738 55.3718 171.185 53.8692 171.679 51.9793C171.797 51.5097 171.867 51.0285 171.867 50.5237C171.867 47.3777 169.303 44.8187 166.151 44.8187Z" fill="#78ACEA"/>
<path d="M167.915 55.6417C167.915 55.7591 167.904 55.8648 167.868 55.9704C167.727 56.4987 167.245 56.8743 166.68 56.8743C165.998 56.8743 165.445 56.3226 165.445 55.6417C165.445 54.9609 165.998 54.4092 166.68 54.4092C167.08 54.4092 167.433 54.597 167.657 54.8905C167.821 55.09 167.915 55.3483 167.915 55.6417Z" fill="#78ACEA"/>
<path d="M186.653 44.8186C183.501 44.8186 180.937 47.3776 180.937 50.5236H182.031C182.031 47.9763 184.101 45.9103 186.653 45.9103C189.206 45.9103 191.276 47.9763 191.276 50.5236C191.276 51.0284 191.194 51.5214 191.041 51.9792C190.582 53.3292 189.523 54.4091 188.171 54.8787C187.783 55.0196 187.359 55.1017 186.924 55.1252V56.2169C187.43 56.1934 187.924 56.1113 188.382 55.9587C190.241 55.3717 191.688 53.8692 192.182 51.9792C192.311 51.5097 192.37 51.0284 192.37 50.5236C192.37 47.3776 189.806 44.8186 186.653 44.8186Z" fill="#78ACEA"/>
<path d="M188.417 55.6416C188.417 55.759 188.406 55.8647 188.37 55.9703C188.229 56.4985 187.747 56.8742 187.182 56.8742C186.5 56.8742 185.947 56.3225 185.947 55.6416C185.947 54.9608 186.5 54.4091 187.182 54.4091C187.582 54.4091 187.935 54.5969 188.159 54.8903C188.323 55.0899 188.417 55.3482 188.417 55.6416Z" fill="#78ACEA"/>
<path d="M207.142 44.8187C203.99 44.8187 201.426 47.3777 201.426 50.5237H202.52C202.52 47.9764 204.59 45.9104 207.142 45.9104C209.695 45.9104 211.765 47.9764 211.765 50.5237C211.765 51.0285 211.683 51.5215 211.53 51.9793C211.071 53.3292 210.012 54.4092 208.66 54.8788C208.272 55.0196 207.848 55.1018 207.413 55.1253V56.217C207.919 56.1935 208.413 56.1113 208.871 55.9587C210.73 55.3718 212.177 53.8692 212.671 51.9793C212.788 51.5097 212.859 51.0285 212.859 50.5237C212.859 47.3777 210.295 44.8187 207.142 44.8187Z" fill="#78ACEA"/>
<path d="M208.907 55.6417C208.907 55.7591 208.895 55.8648 208.86 55.9704C208.719 56.4987 208.236 56.8743 207.672 56.8743C206.99 56.8743 206.437 56.3226 206.437 55.6417C206.437 54.9609 206.99 54.4092 207.672 54.4092C208.072 54.4092 208.425 54.597 208.648 54.8905C208.813 55.09 208.907 55.3483 208.907 55.6417Z" fill="#78ACEA"/>
<path d="M227.643 44.8187C224.491 44.8187 221.927 47.3777 221.927 50.5237H223.021C223.021 47.9764 225.091 45.9104 227.643 45.9104C230.196 45.9104 232.266 47.9764 232.266 50.5237C232.266 51.0285 232.184 51.5215 232.031 51.9793C231.572 53.3292 230.513 54.4092 229.161 54.8788C228.761 55.0196 228.349 55.1018 227.914 55.1253V56.217C228.42 56.1935 228.914 56.1113 229.372 55.9587C231.231 55.3718 232.678 53.8692 233.172 51.9793C233.289 51.5097 233.36 51.0285 233.36 50.5237C233.36 47.3777 230.796 44.8187 227.643 44.8187Z" fill="#78ACEA"/>
<path d="M229.408 55.6418C229.408 55.7592 229.396 55.8648 229.36 55.9705C229.219 56.4987 228.737 56.8744 228.173 56.8744C227.49 56.8744 226.938 56.3227 226.938 55.6418C226.938 54.961 227.49 54.4092 228.173 54.4092C228.572 54.4092 228.925 54.5971 229.149 54.8905C229.313 55.0901 229.408 55.3483 229.408 55.6418Z" fill="#78ACEA"/>
<path d="M177.831 107.069H171.161C170.385 107.069 169.644 106.435 169.491 105.672L168.209 99.0161C168.056 98.2413 168.574 97.6191 169.338 97.6191H176.007C176.784 97.6191 177.525 98.253 177.678 99.0161L178.96 105.672C179.113 106.447 178.607 107.069 177.831 107.069Z" fill="#AFCDFB"/>
<path d="M194.651 107.069H187.982C187.205 107.069 186.464 106.435 186.311 105.672L185.029 99.0161C184.876 98.2414 185.394 97.6192 186.158 97.6192H192.828C193.604 97.6192 194.345 98.2531 194.498 99.0161L195.78 105.672C195.933 106.447 195.427 107.069 194.651 107.069Z" fill="#AFCDFB"/>
<path d="M211.47 107.069H204.801C204.025 107.069 203.284 106.435 203.131 105.672L201.849 99.0161C201.696 98.2413 202.213 97.6191 202.978 97.6191H209.647C210.423 97.6191 211.164 98.253 211.317 99.0161L212.599 105.672C212.752 106.447 212.247 107.069 211.47 107.069Z" fill="#78ACEA"/>
<path d="M127.372 107.069H120.702C119.926 107.069 119.185 106.435 119.032 105.672L117.75 99.0161C117.597 98.2414 118.115 97.6192 118.879 97.6192H125.548C126.325 97.6192 127.066 98.2531 127.219 99.0161L128.501 105.672C128.654 106.447 128.148 107.069 127.372 107.069Z" fill="#AFCDFB"/>
<path d="M120.067 87.1013H117.197C116.868 87.1013 116.539 86.8313 116.48 86.5027L115.927 83.6384C115.868 83.3097 116.08 83.0397 116.409 83.0397H119.279C119.609 83.0397 119.938 83.3097 119.997 83.6384L120.55 86.5027C120.62 86.8313 120.397 87.1013 120.067 87.1013Z" fill="#171766"/>
<path d="M144.191 107.069H137.522C136.746 107.069 136.005 106.435 135.852 105.672L134.57 99.0161C134.417 98.2413 134.934 97.6191 135.699 97.6191H142.368C143.144 97.6191 143.885 98.253 144.038 99.0161L145.32 105.672C145.473 106.447 144.967 107.069 144.191 107.069Z" fill="#AFCDFB"/>
<path d="M161.011 107.069H154.342C153.566 107.069 152.825 106.435 152.672 105.672L151.39 99.0161C151.237 98.2414 151.754 97.6192 152.519 97.6192H159.188C159.964 97.6192 160.705 98.2531 160.858 99.0161L162.14 105.672C162.293 106.447 161.788 107.069 161.011 107.069Z" fill="#AFCDFB"/>
<path d="M228.29 107.069H221.621C220.845 107.069 220.104 106.435 219.951 105.672L218.669 99.0161C218.516 98.2414 219.034 97.6192 219.798 97.6192H226.467C227.243 97.6192 227.984 98.2531 228.137 99.0161L229.419 105.672C229.572 106.447 229.067 107.069 228.29 107.069Z" fill="#78ACEA"/>
<path d="M175.043 92.6302H168.374C167.598 92.6302 166.857 91.9963 166.704 91.2333L165.422 84.5775C165.269 83.8027 165.786 83.1805 166.551 83.1805H173.22C173.996 83.1805 174.737 83.8144 174.89 84.5775L176.172 91.2333C176.325 91.9963 175.808 92.6302 175.043 92.6302Z" fill="#AFCDFB"/>
<path d="M191.863 92.6303H185.194C184.418 92.6303 183.677 91.9964 183.524 91.2334L182.242 84.5775C182.089 83.8028 182.606 83.1806 183.371 83.1806H190.04C190.816 83.1806 191.557 83.8145 191.71 84.5775L192.992 91.2334C193.145 91.9964 192.628 92.6303 191.863 92.6303Z" fill="#AFCDFB"/>
<path d="M208.683 92.6302H202.014C201.237 92.6302 200.496 91.9963 200.343 91.2333L199.061 84.5775C198.908 83.8027 199.426 83.1805 200.19 83.1805H206.86C207.636 83.1805 208.377 83.8144 208.53 84.5775L209.812 91.2333C209.965 91.9963 209.447 92.6302 208.683 92.6302Z" fill="#78ACEA"/>
<path d="M225.503 92.6303H218.834C218.057 92.6303 217.316 91.9964 217.163 91.2334L215.881 84.5775C215.728 83.8028 216.246 83.1806 217.01 83.1806H223.68C224.456 83.1806 225.197 83.8145 225.35 84.5775L226.632 91.2334C226.785 91.9964 226.267 92.6303 225.503 92.6303Z" fill="#78ACEA"/>
<path d="M180.795 122.388H174.126C173.35 122.388 172.609 121.754 172.456 120.991L171.174 114.335C171.021 113.56 171.539 112.938 172.303 112.938H178.972C179.749 112.938 180.49 113.572 180.643 114.335L181.925 120.991C182.077 121.754 181.56 122.388 180.795 122.388Z" fill="#AFCDFB"/>
<path d="M197.615 122.388H190.946C190.169 122.388 189.428 121.754 189.275 120.991L187.993 114.335C187.84 113.56 188.358 112.938 189.123 112.938H195.792C196.568 112.938 197.309 113.572 197.462 114.335L198.744 120.991C198.897 121.754 198.379 122.388 197.615 122.388Z" fill="#AFCDFB"/>
<path d="M214.435 122.388H207.766C206.989 122.388 206.248 121.754 206.095 120.991L204.813 114.335C204.661 113.56 205.178 112.938 205.943 112.938H212.612C213.388 112.938 214.129 113.572 214.282 114.335L215.564 120.991C215.717 121.754 215.199 122.388 214.435 122.388Z" fill="#78ACEA"/>
<path d="M130.336 122.388H123.667C122.89 122.388 122.149 121.754 121.996 120.991L120.714 114.335C120.561 113.56 121.079 112.938 121.843 112.938H128.513C129.289 112.938 130.03 113.572 130.183 114.335L131.465 120.991C131.618 121.754 131.1 122.388 130.336 122.388Z" fill="#AFCDFB"/>
<path d="M147.156 122.388H140.487C139.71 122.388 138.969 121.754 138.816 120.991L137.534 114.335C137.381 113.56 137.899 112.938 138.664 112.938H145.333C146.109 112.938 146.85 113.572 147.003 114.335L148.285 120.991C148.438 121.754 147.92 122.388 147.156 122.388Z" fill="#AFCDFB"/>
<path d="M163.975 122.388H157.306C156.53 122.388 155.789 121.754 155.636 120.991L154.354 114.335C154.201 113.56 154.718 112.938 155.483 112.938H162.152C162.928 112.938 163.669 113.572 163.822 114.335L165.104 120.991C165.257 121.754 164.74 122.388 163.975 122.388Z" fill="#AFCDFB"/>
<path d="M231.254 122.388H224.585C223.809 122.388 223.068 121.754 222.915 120.991L221.633 114.335C221.48 113.56 221.998 112.938 222.762 112.938H229.431C230.208 112.938 230.949 113.572 231.102 114.335L232.384 120.991C232.536 121.754 232.019 122.388 231.254 122.388Z" fill="#78ACEA"/>
<path d="M183.759 137.695H177.09C176.314 137.695 175.573 137.061 175.42 136.298L174.138 129.642C173.985 128.868 174.502 128.246 175.267 128.246H181.936C182.712 128.246 183.453 128.879 183.606 129.642L184.888 136.298C185.029 137.073 184.524 137.695 183.759 137.695Z" fill="#AFCDFB"/>
<path d="M200.579 137.695H193.91C193.133 137.695 192.392 137.061 192.239 136.298L190.957 129.643C190.804 128.868 191.322 128.246 192.086 128.246H198.756C199.532 128.246 200.273 128.879 200.426 129.643L201.708 136.298C201.849 137.073 201.343 137.695 200.579 137.695Z" fill="#AFCDFB"/>
<path d="M217.399 137.695H210.73C209.953 137.695 209.212 137.061 209.059 136.298L207.777 129.643C207.624 128.868 208.142 128.246 208.906 128.246H215.576C216.352 128.246 217.093 128.879 217.246 129.643L218.528 136.298C218.669 137.073 218.163 137.695 217.399 137.695Z" fill="#78ACEA"/>
<path d="M133.299 137.695H126.63C125.854 137.695 125.113 137.061 124.96 136.298L123.678 129.643C123.525 128.868 124.043 128.246 124.807 128.246H131.476C132.253 128.246 132.994 128.879 133.146 129.643L134.429 136.298C134.57 137.073 134.064 137.695 133.299 137.695Z" fill="#AFCDFB"/>
<path d="M150.119 137.695H143.45C142.674 137.695 141.933 137.061 141.78 136.298L140.498 129.642C140.345 128.868 140.863 128.246 141.627 128.246H148.296C149.073 128.246 149.814 128.879 149.966 129.642L151.249 136.298C151.39 137.073 150.884 137.695 150.119 137.695Z" fill="#171766"/>
<path d="M166.939 137.695H160.27C159.494 137.695 158.753 137.061 158.6 136.298L157.318 129.643C157.165 128.868 157.682 128.246 158.447 128.246H165.116C165.892 128.246 166.633 128.879 166.786 129.643L168.068 136.298C168.209 137.073 167.704 137.695 166.939 137.695Z" fill="#AFCDFB"/>
<path d="M234.219 137.695H227.549C226.773 137.695 226.032 137.061 225.879 136.298L224.597 129.642C224.444 128.868 224.962 128.246 225.726 128.246H232.395C233.172 128.246 233.913 128.879 234.066 129.642L235.348 136.298C235.489 137.073 234.983 137.695 234.219 137.695Z" fill="#78ACEA"/>
<path d="M186.547 152.146H179.878C179.102 152.146 178.36 151.512 178.208 150.749L176.926 144.093C176.773 143.318 177.29 142.696 178.055 142.696H184.724C185.5 142.696 186.241 143.33 186.394 144.093L187.676 150.749C187.829 151.523 187.323 152.146 186.547 152.146Z" fill="#AFCDFB"/>
<path d="M203.366 152.146H196.697C195.921 152.146 195.18 151.512 195.027 150.749L193.745 144.093C193.592 143.318 194.11 142.696 194.874 142.696H201.543C202.32 142.696 203.061 143.33 203.214 144.093L204.496 150.749C204.649 151.523 204.143 152.146 203.366 152.146Z" fill="#AFCDFB"/>
<path d="M220.187 152.146H213.517C212.741 152.146 212 151.512 211.847 150.749L210.565 144.093C210.412 143.318 210.93 142.696 211.694 142.696H218.363C219.14 142.696 219.881 143.33 220.034 144.093L221.316 150.749C221.469 151.523 220.963 152.146 220.187 152.146Z" fill="#78ACEA"/>
<path d="M136.087 152.146H129.418C128.642 152.146 127.901 151.512 127.748 150.749L126.466 144.093C126.313 143.318 126.83 142.696 127.595 142.696H134.264C135.04 142.696 135.781 143.33 135.934 144.093L137.216 150.749C137.369 151.523 136.851 152.146 136.087 152.146Z" fill="#AFCDFB"/>
<path d="M152.907 152.146H146.238C145.462 152.146 144.721 151.512 144.568 150.749L143.286 144.093C143.133 143.318 143.65 142.696 144.415 142.696H151.084C151.86 142.696 152.601 143.33 152.754 144.093L154.036 150.749C154.189 151.523 153.672 152.146 152.907 152.146Z" fill="#AFCDFB"/>
<path d="M169.727 152.146H163.058C162.281 152.146 161.54 151.512 161.388 150.749L160.105 144.093C159.953 143.318 160.47 142.696 161.235 142.696H167.904C168.68 142.696 169.421 143.33 169.574 144.093L170.856 150.749C171.009 151.523 170.491 152.146 169.727 152.146Z" fill="#AFCDFB"/>
<path d="M140.275 84.4719H122.62C122.361 84.4719 122.149 84.2606 122.149 84.0023C122.149 83.7441 122.361 83.5328 122.62 83.5328H140.275C140.533 83.5328 140.745 83.7441 140.745 84.0023C140.745 84.2606 140.533 84.4719 140.275 84.4719Z" fill="#AFCDFB"/>
<path d="M140.804 86.6083H123.149C122.89 86.6083 122.678 86.397 122.678 86.1387C122.678 85.8805 122.89 85.6692 123.149 85.6692H140.804C141.063 85.6692 141.274 85.8805 141.274 86.1387C141.286 86.397 141.074 86.6083 140.804 86.6083Z" fill="#AFCDFB"/>
<path d="M121.338 68.5774H115.268C114.774 68.5774 114.363 68.1666 114.363 67.6735C114.363 67.1805 114.774 66.7697 115.268 66.7697H121.326C121.82 66.7697 122.232 67.1805 122.232 67.6735C122.232 68.1783 121.832 68.5774 121.338 68.5774Z" fill="white"/>
<path d="M137.958 68.5774H131.9C131.406 68.5774 130.995 68.1666 130.995 67.6735C130.995 67.1805 131.406 66.7697 131.9 66.7697H137.958C138.452 66.7697 138.863 67.1805 138.863 67.6735C138.863 68.1783 138.452 68.5774 137.958 68.5774Z" fill="white"/>
<path d="M154.589 68.5774H148.532C148.038 68.5774 147.626 68.1666 147.626 67.6735C147.626 67.1805 148.038 66.7697 148.532 66.7697H154.589C155.083 66.7697 155.495 67.1805 155.495 67.6735C155.495 68.1783 155.083 68.5774 154.589 68.5774Z" fill="white"/>
<path d="M171.221 68.5774H165.163C164.669 68.5774 164.258 68.1666 164.258 67.6735C164.258 67.1805 164.669 66.7697 165.163 66.7697H171.221C171.715 66.7697 172.127 67.1805 172.127 67.6735C172.115 68.1783 171.715 68.5774 171.221 68.5774Z" fill="white"/>
<path d="M187.841 68.5774H181.783C181.289 68.5774 180.878 68.1666 180.878 67.6735C180.878 67.1805 181.289 66.7697 181.783 66.7697H187.841C188.335 66.7697 188.747 67.1805 188.747 67.6735C188.747 68.1783 188.335 68.5774 187.841 68.5774Z" fill="white"/>
<path d="M204.472 68.5774H198.415C197.921 68.5774 197.509 68.1666 197.509 67.6735C197.509 67.1805 197.921 66.7697 198.415 66.7697H204.472C204.966 66.7697 205.378 67.1805 205.378 67.6735C205.378 68.1783 204.966 68.5774 204.472 68.5774Z" fill="white"/>
<path d="M221.104 68.5774H215.047C214.553 68.5774 214.141 68.1666 214.141 67.6735C214.141 67.1805 214.553 66.7697 215.047 66.7697H221.104C221.598 66.7697 222.01 67.1805 222.01 67.6735C221.998 68.1783 221.598 68.5774 221.104 68.5774Z" fill="white"/>
<path d="M182.772 92.7593C181.431 92.7593 180.454 92.3367 179.925 91.515C178.902 89.942 179.69 87.7234 182.266 84.9413C184.148 82.9105 186.335 81.3023 186.359 81.2788C186.441 81.2201 186.571 81.2319 186.629 81.3258C186.688 81.408 186.677 81.5371 186.582 81.5958C186.5 81.6545 178.055 87.8995 180.254 91.3037C180.948 92.3837 182.442 92.4541 183.571 92.325C185.665 92.0785 188.394 90.9633 190.864 89.3199C193.428 87.6178 195.239 85.7043 195.816 84.0609C196.204 82.981 196.086 82.2179 195.463 81.7953C194.663 81.2436 192.993 81.2436 190.993 81.7953C189.076 82.3236 187.159 83.2744 185.971 84.2722C185.888 84.3426 185.771 84.3309 185.7 84.2487C185.63 84.1666 185.641 84.0492 185.724 83.9787C186.947 82.9457 188.935 81.9597 190.887 81.4197C193.028 80.8328 194.769 80.8562 195.675 81.4784C196.216 81.854 196.733 82.6171 196.169 84.19C195.557 85.9039 193.698 87.8877 191.064 89.6368C188.535 91.3154 185.747 92.4541 183.595 92.7124C183.324 92.7358 183.042 92.7593 182.772 92.7593Z" fill="#C65447"/>
<path d="M217.763 81.7956L217.081 80.5043C217.081 80.5043 217.422 78.1918 214.529 76.7362C214.529 76.7362 213.47 76.3019 212.87 77.1705C212.317 77.9688 213.917 77.8162 213.835 79.1779C213.752 80.5396 214.399 81.3378 215.293 81.7721L216.034 82.629L217.763 81.7956Z" fill="#FFB27D"/>
<path d="M245.146 78.6966C245.146 78.6966 242.652 90.8814 228.961 94.8725C224.691 96.1168 214.976 82.0656 214.976 82.0656C214.976 82.0656 215.317 80.7743 217.458 81.0678C217.458 81.0678 226.914 87.3128 228.102 87.9936C229.161 88.5923 236.101 80.2578 239.276 78.9079C242.44 77.5579 245.146 78.6966 245.146 78.6966Z" fill="#233862"/>
<path d="M205.107 78.4718L205.655 81.4268L220.563 78.6714L220.015 75.7164L205.107 78.4718Z" fill="#C65447"/>
<path d="M201.92 80.5982L205.66 81.4317L205.107 78.4735L201.92 80.5982Z" fill="#FFB27D"/>
<path d="M221.927 76.3841L222.103 77.3232C222.209 77.8984 221.833 78.4501 221.256 78.5558L220.562 78.6849L220.01 75.7268L220.762 75.5859C221.303 75.4802 221.821 75.8441 221.927 76.3841Z" fill="#FFB27D"/>
<path d="M261.495 155.315C261.495 155.315 263.188 156.865 262.859 157.956C262.53 159.06 260.989 159.788 260.789 161.137C260.577 162.476 259.754 163.215 259.013 163.215C258.272 163.215 255.461 163.215 255.461 163.215C255.461 163.215 254.908 162.264 256.237 161.983C257.566 161.701 258.06 160.116 257.978 158.649C257.895 157.182 258.107 155.233 258.107 155.233L260.93 154.587L261.495 155.315Z" fill="#233862"/>
<path d="M240.652 159.318C240.652 159.318 240.958 162.84 240.217 163.203L230.678 163.18C230.678 163.18 230.678 162.077 232.207 161.842C233.736 161.595 236.43 160.703 236.889 158.708C237.336 156.712 240.652 159.318 240.652 159.318Z" fill="#233862"/>
<path d="M232.595 109.581C232.595 109.581 233.101 115.756 233.689 123.174C234.489 133.258 235.465 145.631 235.56 147.978C235.724 152.052 236.383 158.567 236.383 158.567C236.383 158.567 237.959 160.116 241.111 159.459C241.111 159.459 243.922 150.162 244.722 140.325C244.734 140.16 244.746 139.996 244.757 139.843C245.498 129.83 246.663 108.736 246.663 108.736L232.595 109.581Z" fill="#F99746"/>
<path d="M232.595 109.581C232.595 109.581 233.101 115.756 233.689 123.174L244.722 140.325C244.734 140.16 244.746 139.996 244.757 139.843C245.498 129.83 246.663 108.736 246.663 108.736L232.595 109.581Z" fill="#ED7D2B"/>
<path d="M234.901 110.309C234.901 110.309 243.97 132.659 249.945 143.165C255.908 153.672 257.778 156.606 257.778 156.606C257.778 156.606 261.201 155.268 261.507 154.341C261.507 154.341 259.225 134.056 255.226 129.114C252.968 126.32 250.321 117.939 250.192 115.004C250.062 112.07 249.38 106.271 249.38 106.271L234.901 110.309Z" fill="#F99746"/>
<path d="M246.839 75.8676C246.839 75.8676 240.699 78.8257 237.159 77.7223C237.159 77.7223 238.029 76.6306 239.558 75.8089C239.441 75.1045 239.335 74.4824 239.288 73.9659C239.135 72.7568 239.135 72.076 239.135 72.076L241.499 70.2212L243.746 68.437C243.569 73.4376 246.839 75.8676 246.839 75.8676Z" fill="#FFB27D"/>
<path d="M232.207 110.086C232.313 110.18 232.443 110.227 232.572 110.227C233.901 110.203 237.783 110.931 241.064 110.602C243.84 110.332 246.287 109.534 248.921 108.384C249.274 108.219 250.074 107.797 250.062 107.421C250.051 106.999 250.004 106.388 249.956 105.613C249.851 104.087 249.686 101.916 249.639 99.3449C249.604 97.4433 249.627 95.3068 249.757 93.053C249.768 92.9004 249.768 92.7478 249.78 92.5952C249.815 91.7735 249.839 90.94 249.839 90.1183C249.851 87.5006 249.662 85.0002 249.286 82.7581C248.616 78.8726 247.369 75.844 245.51 74.4941C245.263 74.3062 243.734 75.0458 242.323 75.7266C241.029 76.3605 239.735 76.4192 238.512 76.1844L237.289 77.2527C235.807 78.6026 234.172 80.4573 233.454 83.2746C232.854 85.6576 232.502 89.9657 232.313 94.4382C232.219 96.469 232.149 98.4998 232.125 100.448V100.519C232.113 100.718 232.113 100.918 232.113 101.117C232.043 106.083 232.113 110.027 232.207 110.086Z" fill="#2B478B"/>
<path d="M243.781 70.3503C243.781 70.3503 242.229 73.1676 239.276 73.9658C239.124 72.7568 239.124 72.0759 239.124 72.0759L241.488 70.2212L243.781 70.3503Z" fill="#ED985F"/>
<path d="M238.053 71.9937C238.053 71.9937 243.91 72.9446 244.463 69.3525C245.016 65.7605 246.133 63.4597 242.428 62.6967C238.711 61.9336 237.77 63.2014 237.288 64.3518C236.806 65.514 236.535 71.6533 238.053 71.9937Z" fill="#FFB27D"/>
<path d="M246.581 62.2741C246.64 62.2154 246.757 62.1685 247.028 62.145C247.028 62.145 246.804 62.0042 246.522 62.0042C246.463 61.6285 246.263 60.9594 245.605 60.7951C245.605 60.7951 245.957 60.9829 246.004 61.382C245.252 60.6072 243.628 60.0438 239.135 60.3959C233.219 60.8655 235.172 64.6454 235.936 65.0914C236.701 65.5375 238.63 64.3049 240.053 64.4223C241.476 64.5397 241.747 66.594 242.241 66.8757C242.723 67.1575 242.535 66.6644 243.193 66.3592C243.852 66.054 243.911 67.1457 243.723 67.85C243.534 68.5544 244.428 69.4817 244.428 69.4817C244.428 69.4817 244.428 69.4817 245.334 68.5074C246.24 67.5331 247.098 63.3893 246.687 62.5089C246.663 62.4385 246.628 62.3563 246.581 62.2741Z" fill="#2C3A64"/>
<path d="M217.058 80.4339C217.058 80.4339 217.258 79.6357 216.705 79.2835C216.152 78.9314 215.646 77.957 215.411 78.0862C214.929 78.3562 215.67 79.2013 215.541 80.2578C215.493 80.6335 216.364 81.6078 217.058 80.4339Z" fill="#FFB27D"/>
<path d="M249.651 99.345C249.616 97.4434 249.639 95.3069 249.768 93.0531C249.78 92.9005 249.78 92.7479 249.792 92.5953C249.239 89.8367 248.392 87.395 247.157 87.3246C247.157 87.3246 243.464 93.1235 249.651 99.345Z" fill="#233862"/>
<path d="M254.532 109.335C254.532 109.335 254.226 112.316 253.885 112.892C253.544 113.455 252.109 115.263 251.497 115.615C250.886 115.967 251.874 113.232 251.744 112.704C251.615 112.176 251.239 113.678 250.968 113.713C250.698 113.749 250.768 112.399 250.756 111.906C250.745 111.413 252.074 110.203 252.532 109.147C253.015 108.102 254.532 109.335 254.532 109.335Z" fill="#FFB27D"/>
<path d="M245.522 74.4706C245.522 74.4706 249.227 76.2197 251.003 78.9196C253.755 83.0986 256.955 98.312 257.014 99.7324C257.072 101.141 254.685 111.095 254.685 111.095C254.685 111.095 252.262 110.931 251.638 109.71C251.638 109.71 252.12 99.4859 251.815 98.8285C251.509 98.1711 241.711 85.1177 242.805 82.3238C243.899 79.5418 245.522 74.4706 245.522 74.4706Z" fill="#2B478B"/>
<path d="M203.825 79.3187L204.025 81.0678L201.92 80.5982L203.825 79.3187Z" fill="#C65447"/>
<path d="M284.019 163.168H273.34C272.763 162.687 273.739 161.584 274.751 161.513C275.186 161.478 275.751 161.572 276.386 161.701C276.527 159.753 277.374 150.995 280.538 151.348C284.09 151.747 280.538 155.21 279.538 157.252C278.797 158.766 278.009 160.95 277.644 161.971C277.939 162.03 278.233 162.1 278.538 162.147C279.009 160.703 280.761 155.844 282.996 156.125C285.619 156.454 284.561 158.403 282.702 159.565C281.338 160.41 279.668 161.619 278.868 162.206C279.538 162.312 280.244 162.394 280.961 162.37C282.784 162.335 283.678 162.875 284.019 163.168Z" fill="#82B378"/>
<path d="M40.2264 162.652C39.6618 161.76 37.9563 159.459 35.6862 159.764C33.2162 160.093 38.415 161.725 40.0147 162.652C39.6618 162.652 39.356 162.628 39.1325 162.546C38.0621 162.171 36.239 162.898 35.6627 163.145H45.8016C45.731 162.898 45.5546 162.511 45.0724 162.218C44.9077 162.112 44.5666 162.1 44.1431 162.135C44.743 161.431 45.1664 159.165 43.4845 159.741C42.2612 160.163 42.2612 161.548 42.3788 162.37C42.1201 162.405 41.8495 162.452 41.5908 162.488C41.085 159.917 39.2972 152.392 35.6862 152.193C32.0164 151.993 38.7914 159.999 41.0497 162.558C40.7674 162.617 40.4851 162.64 40.2264 162.652Z" fill="#82B378"/>
<path d="M317.635 163.896H0.364625C0.164669 163.896 0 163.732 0 163.532V163.415C0 163.215 0.164669 163.051 0.364625 163.051H317.647C317.847 163.051 318.012 163.215 318.012 163.415V163.532C318 163.732 317.835 163.896 317.635 163.896Z" fill="#2E3552"/>
<path d="M132.029 80.3282C131.641 79.3187 131.853 78.6613 132.747 78.2505C132.547 78.2035 132.406 78.1331 132.3 78.1565C131.535 78.3092 130.735 77.9687 129.959 77.9453C129.818 77.9453 129.689 77.9805 129.559 78.0039C129.665 78.1096 129.759 78.2035 129.865 78.3209C129.289 78.4735 128.724 78.7435 128.018 78.3913C128.089 78.227 127.854 77.687 127.63 77.4757C127.289 77.1588 126.924 77.1118 126.513 77.3348C126.254 76.8536 126.148 76.7831 125.607 76.7949C124.254 76.8301 123.067 77.2527 121.961 77.8279C121.596 78.0274 121.243 78.2505 120.855 78.4852C121.796 79.26 122.02 80.0582 121.514 80.9504C121.69 80.9504 121.796 80.9504 121.902 80.9504C124.784 80.9504 127.665 80.9621 130.535 80.9504C130.712 80.9504 130.9 80.8917 131.018 80.786C131.276 80.5395 131.512 80.2695 132.029 80.3282Z" fill="#AFCDFB"/>
<path d="M136.793 80.3282C136.605 80.516 136.311 80.5747 136.463 80.9269C137.322 80.9269 138.181 80.9269 139.063 80.9269C139.016 80.6804 138.969 80.4691 138.687 80.3165C137.346 79.5887 135.981 78.943 134.534 78.6496C134.464 78.6378 134.393 78.6261 134.252 78.6026C134.84 79.1543 135.123 79.7295 134.981 80.4925C135.558 80.2343 136.099 80.1169 136.793 80.3282Z" fill="#AFCDFB"/>
<path d="M132.606 80.7743C132.229 80.4456 132.006 80.0582 131.971 79.6122C131.912 78.8257 132.488 78.2739 133.253 78.3444C134.006 78.4148 134.723 79.0604 134.852 79.7882C134.994 80.5747 134.5 81.1851 133.7 81.1969C133.323 81.2086 132.935 81.1969 132.547 81.1969C132.476 81.1969 132.406 81.1734 132.335 81.1617C132.335 81.1382 132.335 81.1264 132.335 81.103C132.512 81.0795 132.688 81.056 132.959 81.0208C132.782 80.9151 132.688 80.8565 132.606 80.7743ZM133.241 78.9196C132.782 78.9196 132.476 79.3304 132.571 79.7882C132.665 80.2578 133.123 80.6334 133.594 80.6217C134.064 80.6099 134.358 80.246 134.253 79.7648C134.158 79.2952 133.7 78.9078 133.241 78.9196Z" fill="#AFCDFB"/>
<path d="M119.35 80.786C118.797 80.3165 118.573 79.6356 118.785 79.0722C118.973 78.5557 119.561 78.2505 120.15 78.3796C120.832 78.5205 121.385 79.037 121.561 79.6709C121.737 80.3282 121.514 80.9856 120.914 81.1147C120.314 81.2439 119.656 81.2086 119.02 81.2556C119.009 81.2204 118.997 81.1734 118.985 81.1382C119.185 81.1147 119.385 81.0795 119.656 81.0443C119.526 80.9269 119.432 80.8565 119.35 80.786ZM121.032 79.7883C120.949 79.3304 120.479 78.9313 120.02 78.9196C119.573 78.9078 119.232 79.3187 119.303 79.7648C119.385 80.2226 119.867 80.6217 120.326 80.6334C120.796 80.6217 121.114 80.2578 121.032 79.7883Z" fill="#AFCDFB"/>
<path d="M116.891 76.7596C116.903 77.0649 117.021 77.2409 117.28 77.3701C117.456 77.464 117.621 77.6166 117.774 77.7692C117.926 77.9218 118.044 78.1096 118.173 78.2739C118.55 78.7552 118.562 78.767 118.279 79.1778C118.126 79.4126 118.279 79.6474 118.362 79.8821C118.373 79.9174 118.503 79.9761 118.55 79.9643C118.597 79.9526 118.62 79.8704 118.62 79.8117C118.632 79.5652 118.597 79.2952 118.667 79.0722C118.832 78.5322 119.256 78.2622 119.926 78.227C119.679 78.0157 119.491 77.8513 119.256 77.64C119.373 77.6166 119.467 77.6166 119.526 77.5696C119.597 77.5227 119.644 77.4405 119.703 77.3701C119.62 77.2996 119.526 77.1822 119.444 77.1588C118.867 77.0531 118.279 76.9709 117.703 76.877C117.444 76.8418 117.174 76.7949 116.891 76.7596Z" fill="#AFCDFB"/>
<path d="M115.068 80.0817C115.915 80.0817 116.774 80.0817 117.621 80.0817C117.679 80.0817 117.726 80.023 117.774 79.9878C117.703 79.9526 117.632 79.8821 117.574 79.8821C116.727 79.8939 115.88 79.9174 115.033 79.9408C115.045 79.9761 115.056 80.0347 115.068 80.0817Z" fill="#AFCDFB"/>
<path d="M114.715 79.3304C115.574 79.3304 116.433 79.3304 117.291 79.3304C117.35 79.3304 117.397 79.2717 117.444 79.2482C117.374 79.213 117.303 79.1309 117.256 79.1309C116.397 79.1426 115.539 79.1661 114.692 79.1896C114.692 79.2248 114.704 79.2717 114.715 79.3304Z" fill="#AFCDFB"/>
<path d="M114.786 78.4265C115.774 78.5205 116.75 78.5087 117.726 78.5557C117.715 78.4852 117.691 78.4031 117.679 78.3326C116.715 78.3561 115.75 78.3913 114.786 78.4265Z" fill="#AFCDFB"/>
<path d="M114.327 77.734C115.209 77.734 116.08 77.734 117.056 77.734C116.915 77.6518 116.844 77.5931 116.774 77.5931C115.95 77.5814 115.115 77.5931 114.292 77.5931C114.304 77.6283 114.316 77.687 114.327 77.734Z" fill="#AFCDFB"/>
<path d="M133.594 80.6217C133.123 80.6334 132.664 80.2578 132.57 79.7882C132.476 79.3304 132.782 78.9196 133.241 78.9196C133.699 78.9196 134.158 79.2952 134.264 79.7647C134.358 80.246 134.076 80.6099 133.594 80.6217ZM132.723 79.8234C132.829 79.8117 132.935 79.7882 133.052 79.7765C133.064 79.976 132.711 80.07 133.041 80.3399C133.1 80.2343 133.147 80.1286 133.205 80.023C133.382 80.1639 133.217 80.5395 133.617 80.516C133.582 80.3869 133.547 80.2812 133.499 80.1521C133.699 80.1873 133.876 80.5512 134.064 80.2578C133.935 80.1873 133.829 80.1286 133.699 80.0582C133.817 79.9056 134.229 80.1404 134.135 79.7295C134.017 79.753 133.899 79.7765 133.77 79.8C133.77 79.6004 134.099 79.4948 133.794 79.2248C133.735 79.3422 133.676 79.4361 133.617 79.5534C133.488 79.3774 133.605 79.0839 133.229 79.0604C133.276 79.2013 133.311 79.3069 133.347 79.4243C133.147 79.4243 132.982 79.0135 132.77 79.3069C132.888 79.3891 133.005 79.4478 133.17 79.5652C132.7 79.5769 132.7 79.5769 132.723 79.8234Z" fill="#AFCDFB"/>
<path d="M119.303 79.753C119.22 79.307 119.561 78.8961 120.02 78.9078C120.491 78.9196 120.949 79.3187 121.032 79.7765C121.114 80.2343 120.796 80.61 120.326 80.61C119.855 80.6217 119.385 80.2108 119.303 79.753ZM120.467 79.8C120.549 79.5887 120.82 79.4713 120.526 79.1896C120.467 79.3187 120.432 79.4243 120.385 79.53C120.208 79.3891 120.349 79.037 119.973 79.0487C120.008 79.1778 120.044 79.2835 120.079 79.3891C119.879 79.3891 119.726 79.0017 119.514 79.2717C119.644 79.3539 119.75 79.4361 119.879 79.5183C119.726 79.6239 119.397 79.4361 119.444 79.8C119.573 79.7882 119.691 79.7765 119.808 79.7765C119.797 79.9643 119.455 80.0582 119.797 80.3165C119.855 80.2108 119.902 80.1169 119.961 79.9995C120.091 80.1874 120.008 80.4926 120.373 80.516C120.326 80.3752 120.291 80.2695 120.244 80.1404C120.444 80.1639 120.632 80.516 120.82 80.2343C120.679 80.1521 120.573 80.0934 120.444 80.023C120.585 79.8939 120.973 80.0935 120.879 79.6943C120.726 79.7413 120.632 79.7648 120.467 79.8Z" fill="#AFCDFB"/>
<path d="M133.182 79.5535C132.7 79.5769 132.7 79.5769 132.723 79.8234C132.829 79.8117 132.935 79.7882 133.053 79.7765C133.064 79.976 132.712 80.07 133.041 80.3399C133.1 80.2343 133.147 80.1287 133.206 80.023C133.382 80.1639 133.217 80.5395 133.617 80.516C133.582 80.3869 133.547 80.2813 133.5 80.1521C133.7 80.1873 133.876 80.5512 134.064 80.2578C133.935 80.1873 133.829 80.1286 133.7 80.0582C133.817 79.9056 134.229 80.1404 134.135 79.7295C134.017 79.753 133.9 79.7765 133.77 79.8C133.77 79.6004 134.099 79.4948 133.794 79.2248C133.735 79.3422 133.676 79.4361 133.617 79.5535C133.488 79.3774 133.605 79.0839 133.229 79.0604C133.276 79.2013 133.311 79.3069 133.347 79.4243C133.147 79.4243 132.982 79.0135 132.77 79.3069C132.9 79.3774 133.006 79.4478 133.182 79.5535Z" fill="#AFCDFB"/>
<path d="M120.879 79.7061C120.726 79.7413 120.62 79.7647 120.467 79.8C120.549 79.5887 120.82 79.4713 120.526 79.1895C120.467 79.3187 120.432 79.4243 120.385 79.53C120.208 79.3891 120.349 79.0369 119.973 79.0487C120.008 79.1778 120.044 79.2835 120.079 79.3891C119.879 79.3891 119.726 79.0017 119.514 79.2717C119.644 79.3539 119.75 79.4361 119.879 79.5182C119.726 79.6239 119.397 79.4361 119.444 79.8C119.573 79.7882 119.691 79.7765 119.808 79.7765C119.797 79.9643 119.456 80.0582 119.797 80.3165C119.855 80.2108 119.902 80.1169 119.961 79.9995C120.091 80.1873 120.008 80.4926 120.373 80.516C120.326 80.3752 120.291 80.2695 120.244 80.1404C120.444 80.1639 120.632 80.516 120.82 80.2343C120.679 80.1521 120.573 80.0934 120.444 80.023C120.585 79.9056 120.973 80.1052 120.879 79.7061Z" fill="#AFCDFB"/>
<path d="M147.242 133.587C147.139 133.319 147.195 133.144 147.433 133.034C147.38 133.022 147.342 133.003 147.314 133.009C147.111 133.05 146.898 132.959 146.691 132.953C146.654 132.953 146.619 132.962 146.585 132.969C146.613 132.997 146.638 133.022 146.666 133.053C146.513 133.094 146.363 133.165 146.175 133.072C146.194 133.028 146.131 132.884 146.072 132.828C145.981 132.744 145.884 132.731 145.774 132.791C145.706 132.663 145.677 132.644 145.534 132.647C145.174 132.656 144.858 132.769 144.563 132.922C144.466 132.975 144.373 133.034 144.269 133.097C144.52 133.303 144.579 133.515 144.445 133.753C144.491 133.753 144.52 133.753 144.548 133.753C145.314 133.753 146.081 133.756 146.845 133.753C146.892 133.753 146.942 133.737 146.973 133.709C147.042 133.643 147.104 133.571 147.242 133.587Z" fill="#AFCDFB"/>
<path d="M148.51 133.587C148.46 133.637 148.382 133.653 148.422 133.746C148.651 133.746 148.879 133.746 149.114 133.746C149.101 133.681 149.089 133.625 149.014 133.584C148.657 133.39 148.294 133.219 147.909 133.14C147.89 133.137 147.872 133.134 147.834 133.128C147.99 133.275 148.066 133.428 148.028 133.631C148.181 133.562 148.325 133.531 148.51 133.587Z" fill="#AFCDFB"/>
<path d="M147.396 133.706C147.296 133.618 147.236 133.515 147.227 133.396C147.211 133.187 147.365 133.04 147.568 133.059C147.768 133.078 147.959 133.25 147.994 133.443C148.031 133.652 147.9 133.815 147.687 133.818C147.587 133.821 147.484 133.818 147.38 133.818C147.361 133.818 147.343 133.812 147.324 133.809C147.324 133.802 147.324 133.799 147.324 133.793C147.371 133.787 147.418 133.78 147.49 133.771C147.443 133.743 147.418 133.727 147.396 133.706ZM147.565 133.212C147.443 133.212 147.361 133.321 147.387 133.443C147.412 133.568 147.534 133.668 147.659 133.665C147.784 133.662 147.862 133.565 147.834 133.437C147.809 133.312 147.687 133.209 147.565 133.212Z" fill="#AFCDFB"/>
<path d="M143.869 133.709C143.722 133.584 143.663 133.403 143.719 133.253C143.769 133.115 143.926 133.034 144.082 133.069C144.263 133.106 144.411 133.243 144.457 133.412C144.504 133.587 144.445 133.762 144.285 133.796C144.126 133.831 143.951 133.821 143.782 133.834C143.778 133.824 143.775 133.812 143.772 133.802C143.825 133.796 143.879 133.787 143.951 133.777C143.916 133.746 143.891 133.728 143.869 133.709ZM144.317 133.443C144.295 133.322 144.17 133.215 144.048 133.212C143.929 133.209 143.838 133.318 143.857 133.437C143.879 133.559 144.007 133.665 144.129 133.668C144.254 133.665 144.339 133.568 144.317 133.443Z" fill="#AFCDFB"/>
<path d="M143.215 132.638C143.218 132.719 143.249 132.766 143.318 132.8C143.365 132.825 143.409 132.865 143.449 132.906C143.49 132.947 143.521 132.997 143.556 133.04C143.656 133.168 143.659 133.172 143.584 133.281C143.543 133.343 143.584 133.406 143.606 133.468C143.609 133.478 143.643 133.493 143.656 133.49C143.668 133.487 143.675 133.465 143.675 133.45C143.678 133.384 143.668 133.312 143.687 133.253C143.731 133.109 143.844 133.037 144.022 133.028C143.956 132.972 143.906 132.928 143.844 132.872C143.875 132.865 143.9 132.865 143.916 132.853C143.934 132.841 143.947 132.819 143.963 132.8C143.941 132.781 143.916 132.75 143.894 132.744C143.74 132.716 143.584 132.694 143.431 132.669C143.362 132.659 143.29 132.647 143.215 132.638Z" fill="#AFCDFB"/>
<path d="M142.73 133.521C142.955 133.521 143.184 133.521 143.409 133.521C143.425 133.521 143.437 133.506 143.45 133.496C143.431 133.487 143.412 133.468 143.396 133.468C143.171 133.471 142.946 133.478 142.72 133.484C142.724 133.493 142.727 133.509 142.73 133.521Z" fill="#AFCDFB"/>
<path d="M142.637 133.322C142.865 133.322 143.094 133.322 143.322 133.322C143.338 133.322 143.35 133.306 143.363 133.3C143.344 133.29 143.325 133.268 143.313 133.268C143.084 133.272 142.856 133.278 142.63 133.284C142.63 133.293 142.634 133.306 142.637 133.322Z" fill="#AFCDFB"/>
<path d="M142.655 133.081C142.917 133.106 143.177 133.103 143.437 133.115C143.434 133.096 143.427 133.075 143.424 133.056C143.168 133.062 142.911 133.071 142.655 133.081Z" fill="#AFCDFB"/>
<path d="M142.533 132.897C142.768 132.897 142.999 132.897 143.259 132.897C143.221 132.875 143.202 132.859 143.184 132.859C142.965 132.856 142.742 132.859 142.523 132.859C142.527 132.868 142.53 132.884 142.533 132.897Z" fill="#AFCDFB"/>
<path d="M147.659 133.665C147.534 133.668 147.412 133.568 147.387 133.443C147.362 133.321 147.443 133.212 147.565 133.212C147.687 133.212 147.809 133.312 147.837 133.437C147.862 133.565 147.787 133.662 147.659 133.665ZM147.427 133.453C147.455 133.45 147.484 133.443 147.515 133.44C147.518 133.493 147.424 133.518 147.512 133.59C147.527 133.562 147.54 133.534 147.556 133.506C147.603 133.543 147.559 133.643 147.665 133.637C147.656 133.603 147.646 133.574 147.634 133.54C147.687 133.549 147.734 133.646 147.784 133.568C147.75 133.549 147.721 133.534 147.687 133.515C147.718 133.474 147.828 133.537 147.803 133.428C147.772 133.434 147.74 133.44 147.706 133.446C147.706 133.393 147.793 133.365 147.712 133.293C147.696 133.325 147.681 133.35 147.665 133.381C147.631 133.334 147.662 133.256 147.562 133.25C147.574 133.287 147.584 133.315 147.593 133.346C147.54 133.346 147.496 133.237 147.44 133.315C147.471 133.337 147.502 133.353 147.546 133.384C147.421 133.387 147.421 133.387 147.427 133.453Z" fill="#AFCDFB"/>
<path d="M143.857 133.434C143.835 133.315 143.925 133.206 144.047 133.209C144.173 133.212 144.295 133.318 144.317 133.44C144.338 133.562 144.254 133.662 144.129 133.662C144.004 133.665 143.878 133.556 143.857 133.434ZM144.166 133.446C144.188 133.39 144.26 133.359 144.182 133.284C144.166 133.318 144.157 133.346 144.144 133.375C144.098 133.337 144.135 133.243 144.035 133.246C144.044 133.281 144.054 133.309 144.063 133.337C144.01 133.337 143.969 133.234 143.913 133.306C143.947 133.328 143.975 133.35 144.01 133.371C143.969 133.399 143.882 133.35 143.894 133.446C143.929 133.443 143.96 133.44 143.991 133.44C143.988 133.49 143.897 133.515 143.988 133.584C144.004 133.556 144.016 133.531 144.032 133.499C144.066 133.549 144.044 133.631 144.141 133.637C144.129 133.599 144.119 133.571 144.107 133.537C144.16 133.543 144.21 133.637 144.26 133.562C144.223 133.54 144.195 133.524 144.16 133.506C144.198 133.471 144.301 133.524 144.276 133.418C144.235 133.431 144.21 133.437 144.166 133.446Z" fill="#AFCDFB"/>
<path d="M147.549 133.381C147.421 133.387 147.421 133.387 147.427 133.453C147.456 133.449 147.484 133.443 147.515 133.44C147.518 133.493 147.424 133.518 147.512 133.59C147.527 133.562 147.54 133.534 147.556 133.506C147.603 133.543 147.559 133.643 147.665 133.637C147.656 133.602 147.646 133.574 147.634 133.54C147.687 133.549 147.734 133.646 147.784 133.568C147.75 133.549 147.722 133.534 147.687 133.515C147.718 133.474 147.828 133.537 147.803 133.428C147.772 133.434 147.74 133.44 147.706 133.446C147.706 133.393 147.793 133.365 147.712 133.293C147.696 133.325 147.681 133.35 147.665 133.381C147.631 133.334 147.662 133.256 147.562 133.25C147.574 133.287 147.584 133.315 147.593 133.346C147.54 133.346 147.496 133.237 147.44 133.315C147.474 133.334 147.502 133.353 147.549 133.381Z" fill="#AFCDFB"/>
<path d="M144.276 133.422C144.235 133.431 144.207 133.437 144.166 133.447C144.188 133.39 144.26 133.359 144.182 133.284C144.166 133.319 144.157 133.347 144.144 133.375C144.097 133.337 144.135 133.244 144.035 133.247C144.044 133.281 144.054 133.309 144.063 133.337C144.01 133.337 143.969 133.234 143.913 133.306C143.947 133.328 143.975 133.35 144.01 133.372C143.969 133.4 143.882 133.35 143.894 133.447C143.928 133.443 143.96 133.44 143.991 133.44C143.988 133.49 143.897 133.515 143.988 133.584C144.004 133.556 144.016 133.531 144.032 133.5C144.066 133.55 144.044 133.631 144.141 133.637C144.129 133.6 144.119 133.572 144.107 133.537C144.16 133.543 144.21 133.637 144.26 133.562C144.223 133.54 144.194 133.525 144.16 133.506C144.198 133.475 144.301 133.528 144.276 133.422Z" fill="#AFCDFB"/>
</g>
<defs>
<clipPath id="clip0_505_2117">
<rect width="318" height="163.943" fill="white"/>
</clipPath>
</defs>
</svg>
