<svg width="226" height="226" viewBox="0 0 226 226" fill="none" xmlns="http://www.w3.org/2000/svg">
<path fill-rule="evenodd" clip-rule="evenodd" d="M206 3H158V0H206C217.046 0 226 8.95431 226 20V68H223V20C223 10.6112 215.389 3 206 3ZM223 158H226V206C226 217.046 217.046 226 206 226H158V223H206C215.389 223 223 215.389 223 206V158ZM68 223H20C10.6112 223 3 215.389 3 206V158H0V206C0 217.046 8.9543 226 20 226H68V223ZM0 68V20C0 8.9543 8.95431 0 20 0H68V3H20C10.6112 3 3 10.6112 3 20V68H0Z" fill="#D9D9D9" fill-opacity="0.2"/>
</svg>
