<svg width="24" height="24" viewBox="0 0 24 24" fill="none" xmlns="http://www.w3.org/2000/svg">
<path d="M11.1437 17.8829H4.67114" stroke="#E6E6E6" stroke-width="1.5" stroke-linecap="round" stroke-linejoin="round"/>
<path fill-rule="evenodd" clip-rule="evenodd" d="M15.2051 17.8838C15.2051 19.9256 15.886 20.6056 17.9269 20.6056C19.9678 20.6056 20.6487 19.9256 20.6487 17.8838C20.6487 15.842 19.9678 15.162 17.9269 15.162C15.886 15.162 15.2051 15.842 15.2051 17.8838Z" stroke="#E6E6E6" stroke-width="1.5" stroke-linecap="round" stroke-linejoin="round"/>
<path d="M14.1768 7.39421H20.6484" stroke="#E6E6E6" stroke-width="1.5" stroke-linecap="round" stroke-linejoin="round"/>
<path fill-rule="evenodd" clip-rule="evenodd" d="M10.1154 7.39287C10.1154 5.35198 9.43448 4.67108 7.39358 4.67108C5.35179 4.67108 4.6709 5.35198 4.6709 7.39287C4.6709 9.43466 5.35179 10.1147 7.39358 10.1147C9.43448 10.1147 10.1154 9.43466 10.1154 7.39287Z" stroke="#E6E6E6" stroke-width="1.5" stroke-linecap="round" stroke-linejoin="round"/>
</svg>
