<svg width="16" height="16" viewBox="0 0 16 16" fill="none" xmlns="http://www.w3.org/2000/svg">
<g clip-path="url(#clip0_561_7333)">
<path d="M14.0596 6.70923C14.0596 10.0179 10.9399 12.9806 9.26756 14.3311C8.65892 14.8226 7.81478 14.8226 7.20613 14.3311C5.53376 12.9806 2.41406 10.0179 2.41406 6.70923C2.41406 5.16785 3.02753 3.6896 4.11952 2.59969C5.2115 1.50977 6.69255 0.897461 8.23685 0.897461C9.78115 0.897461 11.2622 1.50977 12.3542 2.59969C13.4462 3.6896 14.0596 5.16785 14.0596 6.70923Z" fill="#C6C6C6" fill-opacity="0.6"/>
<path d="M8.23683 8.64599C9.30877 8.64599 10.1778 7.77866 10.1778 6.70874C10.1778 5.63882 9.30877 4.77148 8.23683 4.77148C7.16488 4.77148 6.2959 5.63882 6.2959 6.70874C6.2959 7.77866 7.16488 8.64599 8.23683 8.64599Z" fill="white"/>
</g>
<defs>
<clipPath id="clip0_561_7333">
<rect width="15.5274" height="15.498" fill="white" transform="translate(0.472656 0.250977)"/>
</clipPath>
</defs>
</svg>
