<svg width="25" height="24" viewBox="0 0 25 24" fill="none" xmlns="http://www.w3.org/2000/svg">
<g clip-path="url(#clip0_317_2895)">
<path d="M19.5 0H5.5C2.743 0 0.5 2.243 0.5 5V19C0.5 21.757 2.743 24 5.5 24H19.5C22.257 24 24.5 21.757 24.5 19V5C24.5 2.243 22.257 0 19.5 0ZM22.5 19C22.5 20.654 21.154 22 19.5 22H5.5C3.846 22 2.5 20.654 2.5 19V5C2.5 3.346 3.846 2 5.5 2H19.5C21.154 2 22.5 3.346 22.5 5V19ZM14.379 6.379L7.672 13.086C6.917 13.841 6.5 14.846 6.5 15.914V17.5C6.5 18.053 6.948 18.5 7.5 18.5H9.086C10.154 18.5 11.159 18.084 11.914 17.328L18.621 10.621C19.791 9.451 19.791 7.549 18.621 6.379C17.487 5.246 15.512 5.246 14.379 6.379ZM10.5 15.914C10.127 16.286 9.612 16.5 9.086 16.5H8.5V15.914C8.5 15.38 8.708 14.878 9.086 14.5L13.336 10.25L14.75 11.664L10.5 15.914ZM17.207 9.207L16.164 10.25L14.75 8.836L15.793 7.793C16.17 7.414 16.829 7.414 17.207 7.793C17.597 8.183 17.597 8.817 17.207 9.207Z" fill="#007AFF"/>
</g>
<defs>
<clipPath id="clip0_317_2895">
<rect width="24" height="24" fill="white" transform="translate(0.5)"/>
</clipPath>
</defs>
</svg>
