<svg width="18" height="18" viewBox="0 0 18 18" fill="none" xmlns="http://www.w3.org/2000/svg">
<g clip-path="url(#clip0_317_2960)">
<path d="M12.7118 12.5265C12.8415 11.8627 12.6338 11.181 12.156 10.7032L7.29676 5.844C6.81901 5.3655 6.13651 5.1585 5.47426 5.28825C4.81126 5.41875 4.25851 5.86725 3.99601 6.49125L0.135006 15.6608C-0.131994 16.2945 0.00975585 17.0183 0.495756 17.5043C0.819006 17.8275 1.24726 17.9985 1.68376 17.9985C1.90426 17.9985 2.12701 17.9542 2.34001 17.865L11.5103 14.0048C12.1335 13.7423 12.5828 13.1895 12.7125 12.5265H12.7118ZM1.75726 16.482C1.68301 16.5142 1.61476 16.5007 1.55626 16.443C1.49776 16.3852 1.48501 16.317 1.51726 16.2413L4.12126 10.056L7.94326 13.8773L1.75726 16.482ZM11.2403 12.2377C11.2238 12.3202 11.1615 12.5235 10.9275 12.6218L9.43576 13.2495L4.74976 8.56425L5.37826 7.07175C5.47651 6.8385 5.67976 6.7755 5.76226 6.75975C5.78701 6.7545 5.82301 6.75 5.86576 6.75C5.96776 6.75 6.11026 6.77775 6.23626 6.90375L11.0955 11.763C11.2748 11.9423 11.256 12.1545 11.2403 12.2377ZM10.293 0.28275C10.5518 -0.039 11.0175 -0.09225 11.34 0.16125C11.4023 0.21075 12.8775 1.3995 12.7485 3.423C12.6983 4.21575 12.3945 4.98225 11.847 5.70375C11.7 5.898 11.4758 6.00075 11.2493 6.00075C11.0918 6.00075 10.932 5.95125 10.7963 5.8485C10.4663 5.598 10.4018 5.12775 10.6523 4.79775C11.0183 4.3155 11.2193 3.82125 11.2508 3.3285C11.3288 2.10525 10.4423 1.36725 10.4048 1.3365C10.086 1.0755 10.0343 0.6045 10.2923 0.28425L10.293 0.28275ZM17.6828 10.3628C17.5515 10.455 17.4008 10.5 17.2515 10.5C17.0183 10.5 16.7895 10.392 16.6433 10.1902C16.6208 10.161 16.2983 9.75 15.7508 9.75C15.4935 9.75 15.2655 9.8235 15.0735 9.96825C14.7428 10.2188 14.2725 10.152 14.0228 9.822C13.773 9.492 13.839 9.021 14.1698 8.772C14.622 8.43075 15.1688 8.25075 15.7508 8.25075C16.8248 8.25075 17.5838 8.922 17.8635 9.31875C18.102 9.657 18.021 10.125 17.6828 10.3643V10.3628ZM15.7508 1.125C15.7508 0.504 16.2548 0 16.8758 0C17.4968 0 18.0008 0.504 18.0008 1.125C18.0008 1.746 17.4968 2.25 16.8758 2.25C16.2548 2.25 15.7508 1.746 15.7508 1.125ZM14.2508 4.875C14.2508 4.254 14.7548 3.75 15.3758 3.75C15.9968 3.75 16.5008 4.254 16.5008 4.875C16.5008 5.496 15.9968 6 15.3758 6C14.7548 6 14.2508 5.496 14.2508 4.875ZM6.00001 1.875C6.00001 1.254 6.50401 0.75 7.12501 0.75C7.74601 0.75 8.25001 1.254 8.25001 1.875C8.25001 2.496 7.74601 3 7.12501 3C6.50401 3 6.00001 2.496 6.00001 1.875ZM17.25 13.875C17.25 14.496 16.746 15 16.125 15C15.504 15 15 14.496 15 13.875C15 13.254 15.504 12.75 16.125 12.75C16.746 12.75 17.25 13.254 17.25 13.875ZM0.750006 2.625C0.750006 2.004 1.25401 1.5 1.87501 1.5C2.49601 1.5 3.00001 2.004 3.00001 2.625C3.00001 3.246 2.49601 3.75 1.87501 3.75C1.25401 3.75 0.750006 3.246 0.750006 2.625ZM13.5 16.875C13.5 17.496 12.996 18 12.375 18C11.754 18 11.25 17.496 11.25 16.875C11.25 16.254 11.754 15.75 12.375 15.75C12.996 15.75 13.5 16.254 13.5 16.875Z" fill="#CCCCCC"/>
</g>
<defs>
<clipPath id="clip0_317_2960">
<rect width="18" height="18" fill="white"/>
</clipPath>
</defs>
</svg>
