<svg width="18" height="18" viewBox="0 0 18 18" fill="none" xmlns="http://www.w3.org/2000/svg">
<g clip-path="url(#clip0_317_2952)">
<path d="M15.015 7.14023C14.6864 6.56673 14.2124 6.09002 13.6408 5.75819C13.0692 5.42636 12.4202 5.25115 11.7592 5.25023H6.24075C5.57983 5.2513 4.93087 5.42658 4.35928 5.75839C3.7877 6.09021 3.31367 6.56683 2.985 7.14023L1.4415 9.84023C0.98886 10.634 0.750554 11.5319 0.749995 12.4457V13.5002C0.75014 14.0267 0.888828 14.5439 1.15213 14.9998C1.41542 15.4557 1.79406 15.8342 2.25 16.0975V16.5002C2.25 16.8981 2.40803 17.2796 2.68934 17.5609C2.97064 17.8422 3.35217 18.0002 3.75 18.0002C4.14782 18.0002 4.52935 17.8422 4.81066 17.5609C5.09196 17.2796 5.25 16.8981 5.25 16.5002H12.75C12.75 16.8981 12.908 17.2796 13.1893 17.5609C13.4706 17.8422 13.8522 18.0002 14.25 18.0002C14.6478 18.0002 15.0294 17.8422 15.3107 17.5609C15.592 17.2796 15.75 16.8981 15.75 16.5002V16.0975C16.2059 15.8342 16.5846 15.4557 16.8479 14.9998C17.1112 14.5439 17.2499 14.0267 17.25 13.5002V12.4457C17.2497 11.5318 17.0111 10.6338 16.5577 9.84023L15.015 7.14023ZM4.29 7.88423C4.48704 7.54065 4.77105 7.25498 5.11347 7.05592C5.45589 6.85687 5.84467 6.75144 6.24075 6.75023H11.7592C12.1552 6.75134 12.544 6.85674 12.8863 7.05581C13.2286 7.25488 13.5124 7.5406 13.7092 7.88423L15.2077 10.5002H2.79225L4.29 7.88423ZM15.75 13.5002C15.75 13.8981 15.592 14.2796 15.3107 14.5609C15.0294 14.8422 14.6478 15.0002 14.25 15.0002H3.75C3.35217 15.0002 2.97064 14.8422 2.68934 14.5609C2.40803 14.2796 2.25 13.8981 2.25 13.5002V12.4457C2.25035 12.2968 2.25936 12.1481 2.277 12.0002H3.75V12.7502C3.75 12.9491 3.82901 13.1399 3.96967 13.2806C4.11032 13.4212 4.30108 13.5002 4.5 13.5002C4.69891 13.5002 4.88967 13.4212 5.03033 13.2806C5.17098 13.1399 5.25 12.9491 5.25 12.7502V12.0002H12.75V12.7502C12.75 12.9491 12.829 13.1399 12.9697 13.2806C13.1103 13.4212 13.3011 13.5002 13.5 13.5002C13.6989 13.5002 13.8897 13.4212 14.0303 13.2806C14.171 13.1399 14.25 12.9491 14.25 12.7502V12.0002H15.723C15.7406 12.1481 15.7496 12.2968 15.75 12.4457V13.5002ZM17.6197 3.48698C17.3865 3.83144 17.0628 4.10489 16.6842 4.27724C16.3056 4.44959 15.8867 4.51415 15.4738 4.46383C15.0609 4.41351 14.6698 4.25026 14.3437 3.99203C14.0175 3.73381 13.7689 3.39062 13.6252 3.00023H4.38375C4.24006 3.39062 3.99147 3.73381 3.66533 3.99203C3.33918 4.25026 2.94813 4.41351 2.53519 4.46383C2.12225 4.51415 1.70343 4.44959 1.32482 4.27724C0.946208 4.10489 0.622476 3.83144 0.389245 3.48698C-4.68599e-06 2.78798 1.4445 3.04598 1.509 3.00023C1.70791 3.00023 1.89867 2.92121 2.03933 2.78056C2.17998 2.63991 2.259 2.44914 2.259 2.25023C2.259 2.05132 2.17998 1.86055 2.03933 1.7199C1.89867 1.57925 1.70791 1.50023 1.509 1.50023H0.758995C0.254245 1.50023 0.290245 1.16423 0.389245 1.01348C0.622476 0.669017 0.946208 0.395568 1.32482 0.22322C1.70343 0.0508724 2.12225 -0.0136945 2.53519 0.0366242C2.94813 0.0869429 3.33918 0.250197 3.66533 0.508423C3.99147 0.766649 4.24006 1.10984 4.38375 1.50023H13.6252C13.7689 1.10984 14.0175 0.766649 14.3437 0.508423C14.6698 0.250197 15.0609 0.0869429 15.4738 0.0366242C15.8867 -0.0136945 16.3056 0.0508724 16.6842 0.22322C17.0628 0.395568 17.3865 0.669017 17.6197 1.01348C18.0127 1.71248 16.5645 1.45448 16.5 1.50023C16.3011 1.50023 16.1103 1.57925 15.9697 1.7199C15.829 1.86055 15.75 2.05132 15.75 2.25023C15.75 2.44914 15.829 2.63991 15.9697 2.78056C16.1103 2.92121 16.3011 3.00023 16.5 3.00023H17.25C17.7547 3.00023 17.7187 3.33623 17.6197 3.48698Z" fill="#CCCCCC"/>
</g>
<defs>
<clipPath id="clip0_317_2952">
<rect width="18" height="18" fill="white"/>
</clipPath>
</defs>
</svg>
